<svg version="1.1" xmlns="http://www.w3.org/2000/svg" xmlns:xlink="http://www.w3.org/1999/xlink" width="26.94697" height="23.543"><g transform="translate(-226.01908,-167.72082)"><g data-paper-data="{&quot;isPaintingLayer&quot;:true}" fill="none" fill-rule="evenodd" stroke="none" stroke-width="1" stroke-linecap="butt" stroke-linejoin="round" stroke-miterlimit="2" stroke-dasharray="" stroke-dashoffset="0" font-family="none" font-weight="none" font-size="none" text-anchor="none" style="mix-blend-mode: normal"><path d="M226.01908,191.26382v-23.543h26.94697v23.543z" data-paper-data="{&quot;origPos&quot;:null}" fill="#363636"/><path d="M234.25629,182.82401l8.77435,-8.77435c0.46886,-0.46886 1.22934,-0.46897 1.69785,-0.00046c0.46851,0.46851 0.4684,1.22899 -0.00046,1.69785l-8.77435,8.77435c-0.46886,0.46886 -1.22934,0.46897 -1.69785,0.00046c-0.46851,-0.46851 -0.4684,-1.22899 0.00046,-1.69785z" fill="#b5b5b5"/><path d="M243.0306,184.52165l-8.77435,-8.77435c-0.46886,-0.46886 -0.46897,-1.22934 -0.00046,-1.69785c0.46851,-0.46851 1.22899,-0.4684 1.69785,0.00046l8.77435,8.77435c0.46886,0.46886 0.46897,1.22934 0.00046,1.69785c-0.46851,0.46851 -1.22899,0.4684 -1.69785,-0.00046z" fill="#b5b5b5"/></g></g></svg>