<svg version="1.1" xmlns="http://www.w3.org/2000/svg" xmlns:xlink="http://www.w3.org/1999/xlink" width="178.589" height="30.478"><g transform="translate(-144.70516,-158.7608)"><g data-paper-data="{&quot;isPaintingLayer&quot;:true}" fill="none" fill-rule="none" stroke="none" stroke-width="1" stroke-linecap="butt" stroke-linejoin="round" stroke-miterlimit="2" stroke-dasharray="" stroke-dashoffset="0" font-family="none" font-weight="none" font-size="none" text-anchor="none" style="mix-blend-mode: normal"><path d="M144.70516,189.2388v-30.478h178.589v30.478z" fill="#363636" fill-rule="evenodd"/><g fill="#b5b5b5" fill-rule="nonzero"><g><path d="M150.88216,171.0718v2.664h4.416v0.876h-4.416v2.676h4.944v0.864h-5.844v-7.944h5.844v0.864z"/></g><g><path d="M159.71416,175.0558l2.328,3.096h-1.152l-1.692,-2.448l-1.704,2.448h-1.14l2.316,-3.096l-2.172,-2.904h1.152l1.548,2.268l1.536,-2.268h1.152z"/></g><g><path d="M163.77016,173.1118c0.48,-0.708 1.2,-1.056 2.148,-1.056c0.864,0 1.56,0.3 2.1,0.9c0.54,0.588 0.804,1.32 0.804,2.196c0,0.876 -0.264,1.608 -0.804,2.196c-0.54,0.6 -1.26,0.9 -2.16,0.9c-0.9,0 -1.596,-0.36 -2.088,-1.068v3.348h-0.9v-8.376h0.9zM165.79816,172.8718c-0.648,0 -1.164,0.228 -1.536,0.672c-0.36,0.42 -0.54,0.96 -0.54,1.608c0,0.648 0.18,1.188 0.54,1.608c0.372,0.444 0.888,0.672 1.536,0.672c0.636,0 1.164,-0.228 1.56,-0.672c0.372,-0.42 0.564,-0.96 0.564,-1.608c0,-0.648 -0.192,-1.188 -0.564,-1.608c-0.396,-0.444 -0.924,-0.672 -1.56,-0.672z"/></g><g><path d="M172.60216,172.0558c0.9,0 1.62,0.3 2.184,0.9c0.528,0.576 0.792,1.308 0.792,2.196c0,0.888 -0.264,1.62 -0.792,2.196c-0.564,0.6 -1.284,0.9 -2.184,0.9c-0.9,0 -1.62,-0.3 -2.184,-0.9c-0.528,-0.576 -0.792,-1.308 -0.792,-2.196c0,-0.888 0.264,-1.62 0.792,-2.196c0.564,-0.6 1.284,-0.9 2.184,-0.9zM172.60216,177.4318c0.648,0 1.164,-0.228 1.536,-0.672c0.36,-0.42 0.54,-0.96 0.54,-1.608c0,-0.648 -0.18,-1.188 -0.54,-1.608c-0.372,-0.444 -0.888,-0.672 -1.536,-0.672c-0.648,0 -1.164,0.228 -1.536,0.672c-0.36,0.42 -0.54,0.96 -0.54,1.608c0,0.648 0.18,1.188 0.54,1.608c0.372,0.444 0.888,0.672 1.536,0.672z"/></g><g><path d="M179.93416,172.0558v0.9h-0.108c-0.648,0 -1.176,0.264 -1.584,0.78c-0.384,0.492 -0.576,1.092 -0.576,1.776v2.64h-0.9v-6h0.9v1.476c0.192,-0.624 0.612,-1.08 1.248,-1.38c0.264,-0.132 0.588,-0.192 0.96,-0.192z"/></g><g><path d="M181.55416,178.1518v-5.208h-1.224v-0.792h1.224v-2.148h0.9v2.148h1.38v0.792h-1.38v5.208z"/></g><g><path d="M188.27426,173.1118c0.48,-0.708 1.2,-1.056 2.148,-1.056c0.864,0 1.56,0.3 2.1,0.9c0.54,0.588 0.804,1.32 0.804,2.196c0,0.876 -0.264,1.608 -0.804,2.196c-0.54,0.6 -1.26,0.9 -2.16,0.9c-0.9,0 -1.596,-0.36 -2.088,-1.068v3.348h-0.9v-8.376h0.9zM190.30226,172.8718c-0.648,0 -1.164,0.228 -1.536,0.672c-0.36,0.42 -0.54,0.96 -0.54,1.608c0,0.648 0.18,1.188 0.54,1.608c0.372,0.444 0.888,0.672 1.536,0.672c0.636,0 1.164,-0.228 1.56,-0.672c0.372,-0.42 0.564,-0.96 0.564,-1.608c0,-0.648 -0.192,-1.188 -0.564,-1.608c-0.396,-0.444 -0.924,-0.672 -1.56,-0.672z"/></g><g><path d="M197.67026,172.0558v0.9h-0.108c-0.648,0 -1.176,0.264 -1.584,0.78c-0.384,0.492 -0.576,1.092 -0.576,1.776v2.64h-0.9v-6h0.9v1.476c0.192,-0.624 0.612,-1.08 1.248,-1.38c0.264,-0.132 0.588,-0.192 0.96,-0.192z"/></g><g><path d="M201.09026,172.0558c0.9,0 1.62,0.3 2.184,0.9c0.528,0.576 0.792,1.308 0.792,2.196c0,0.888 -0.264,1.62 -0.792,2.196c-0.564,0.6 -1.284,0.9 -2.184,0.9c-0.9,0 -1.62,-0.3 -2.184,-0.9c-0.528,-0.576 -0.792,-1.308 -0.792,-2.196c0,-0.888 0.264,-1.62 0.792,-2.196c0.564,-0.6 1.284,-0.9 2.184,-0.9zM201.09026,177.4318c0.648,0 1.164,-0.228 1.536,-0.672c0.36,-0.42 0.54,-0.96 0.54,-1.608c0,-0.648 -0.18,-1.188 -0.54,-1.608c-0.372,-0.444 -0.888,-0.672 -1.536,-0.672c-0.648,0 -1.164,0.228 -1.536,0.672c-0.36,0.42 -0.54,0.96 -0.54,1.608c0,0.648 0.18,1.188 0.54,1.608c0.372,0.444 0.888,0.672 1.536,0.672z"/></g><g><path d="M209.93426,173.1118v-0.96h0.9v5.82c0,0.864 -0.252,1.524 -0.732,1.968c-0.492,0.456 -1.164,0.684 -1.992,0.684c-0.828,0 -1.476,-0.156 -1.944,-0.48c-0.468,-0.324 -0.792,-0.744 -0.96,-1.272h0.996c0.252,0.624 0.84,0.936 1.752,0.936c0.696,0 1.2,-0.156 1.512,-0.48c0.312,-0.324 0.468,-0.792 0.468,-1.416v-0.828c-0.492,0.708 -1.2,1.068 -2.148,1.068c-0.864,0 -1.572,-0.3 -2.112,-0.888c-0.528,-0.576 -0.792,-1.296 -0.792,-2.16c0,-0.864 0.264,-1.584 0.792,-2.16c0.54,-0.588 1.272,-0.888 2.172,-0.888c0.912,0 1.608,0.348 2.088,1.056zM207.90626,177.3358c0.324,0 0.624,-0.06 0.876,-0.18c0.252,-0.108 0.48,-0.264 0.66,-0.468c0.36,-0.42 0.54,-0.948 0.54,-1.584c0,-0.636 -0.18,-1.164 -0.54,-1.584c-0.396,-0.432 -0.9,-0.648 -1.536,-0.648c-0.648,0 -1.164,0.216 -1.56,0.648c-0.372,0.42 -0.564,0.948 -0.564,1.584c0,0.636 0.192,1.164 0.564,1.584c0.396,0.432 0.912,0.648 1.56,0.648z"/></g><g><path d="M215.56226,172.0558v0.9h-0.108c-0.648,0 -1.176,0.264 -1.584,0.78c-0.384,0.492 -0.576,1.092 -0.576,1.776v2.64h-0.9v-6h0.9v1.476c0.192,-0.624 0.612,-1.08 1.248,-1.38c0.264,-0.132 0.588,-0.192 0.96,-0.192z"/></g><g><path d="M221.05826,177.1918c-0.48,0.708 -1.2,1.056 -2.148,1.056c-0.864,0 -1.572,-0.3 -2.112,-0.9c-0.528,-0.588 -0.792,-1.32 -0.792,-2.196c0,-0.876 0.264,-1.608 0.792,-2.196c0.54,-0.6 1.272,-0.9 2.172,-0.9c0.9,0 1.596,0.36 2.088,1.068v-0.972h0.9v6h-0.9zM219.03026,177.4318c0.648,0 1.164,-0.228 1.536,-0.672c0.36,-0.42 0.54,-0.96 0.54,-1.608c0,-0.648 -0.18,-1.188 -0.54,-1.608c-0.372,-0.444 -0.888,-0.672 -1.536,-0.672c-0.636,0 -1.164,0.228 -1.56,0.672c-0.372,0.42 -0.564,0.96 -0.564,1.608c0,0.648 0.192,1.188 0.564,1.608c0.396,0.444 0.924,0.672 1.56,0.672z"/></g><g><path d="M224.41826,173.0638c0.396,-0.672 1.008,-1.008 1.824,-1.008c0.396,0 0.768,0.108 1.116,0.312c0.336,0.216 0.6,0.516 0.792,0.9c0.276,-0.504 0.696,-0.864 1.272,-1.08c0.228,-0.084 0.492,-0.132 0.792,-0.132c0.288,0 0.564,0.06 0.84,0.168c0.264,0.12 0.504,0.288 0.708,0.504c0.444,0.48 0.672,1.08 0.672,1.8v3.624h-0.9v-3.6c0,-0.492 -0.144,-0.9 -0.42,-1.224c-0.276,-0.3 -0.636,-0.456 -1.068,-0.456c-0.456,0 -0.84,0.144 -1.14,0.444c-0.324,0.3 -0.48,0.72 -0.48,1.248v3.588h-0.9v-3.6c0,-0.492 -0.144,-0.9 -0.42,-1.224c-0.276,-0.3 -0.636,-0.456 -1.068,-0.456c-0.456,0 -0.84,0.144 -1.14,0.444c-0.324,0.3 -0.48,0.72 -0.48,1.248v3.588h-0.9v-6h0.9z"/></g></g></g></g></svg>