<?xml version="1.0" encoding="UTF-8" standalone="no"?>
<!DOCTYPE svg PUBLIC "-//W3C//DTD SVG 1.1//EN" "http://www.w3.org/Graphics/SVG/1.1/DTD/svg11.dtd">
<svg width="462px" height="311px" version="1.1" xmlns="http://www.w3.org/2000/svg" xmlns:xlink="http://www.w3.org/1999/xlink" xml:space="preserve" xmlns:serif="http://www.serif.com/" style="fill-rule:evenodd;clip-rule:evenodd;stroke-linejoin:round;stroke-miterlimit:2;">
    <g transform="matrix(1,0,0,1,-9.47791,-40.1606)">
        <rect x="9.478" y="40.161" width="461.365" height="310.683" style="fill:rgb(18,18,18);"/>
        <g transform="matrix(1,0,0,1,39.0663,-17.6612)">
            <g transform="matrix(16,0,0,16,-20.2786,78.7148)">
                <rect x="0.081" y="-0.662" width="0.075" height="0.662" style="fill:white;fill-rule:nonzero;"/>
            </g>
            <g transform="matrix(16,0,0,16,-16.4866,78.7148)">
                <path d="M0.14,-0.424C0.173,-0.48 0.224,-0.508 0.292,-0.508C0.325,-0.508 0.356,-0.499 0.385,-0.482C0.413,-0.464 0.435,-0.439 0.451,-0.407C0.474,-0.449 0.509,-0.479 0.557,-0.497C0.576,-0.504 0.598,-0.508 0.623,-0.508C0.647,-0.508 0.67,-0.503 0.693,-0.494C0.715,-0.484 0.735,-0.47 0.752,-0.452C0.789,-0.412 0.808,-0.362 0.808,-0.302L0.808,0L0.733,0L0.733,-0.3C0.733,-0.341 0.721,-0.375 0.698,-0.402C0.675,-0.427 0.645,-0.44 0.609,-0.44C0.571,-0.44 0.539,-0.428 0.514,-0.403C0.487,-0.378 0.474,-0.343 0.474,-0.299L0.474,0L0.399,0L0.399,-0.3C0.399,-0.341 0.387,-0.375 0.364,-0.402C0.341,-0.427 0.311,-0.44 0.275,-0.44C0.237,-0.44 0.205,-0.428 0.18,-0.403C0.153,-0.378 0.14,-0.343 0.14,-0.299L0.14,0L0.065,0L0.065,-0.5L0.14,-0.5L0.14,-0.424Z" style="fill:white;fill-rule:nonzero;"/>
            </g>
            <g transform="matrix(16,0,0,16,-2.59855,78.7148)">
                <path d="M0.14,-0.42C0.18,-0.479 0.24,-0.508 0.319,-0.508C0.391,-0.508 0.449,-0.483 0.494,-0.433C0.539,-0.384 0.561,-0.323 0.561,-0.25C0.561,-0.177 0.539,-0.116 0.494,-0.067C0.449,-0.017 0.389,0.008 0.314,0.008C0.239,0.008 0.181,-0.022 0.14,-0.081L0.14,0.198L0.065,0.198L0.065,-0.5L0.14,-0.5L0.14,-0.42ZM0.309,-0.44C0.255,-0.44 0.212,-0.421 0.181,-0.384C0.151,-0.349 0.136,-0.304 0.136,-0.25C0.136,-0.196 0.151,-0.151 0.181,-0.116C0.212,-0.079 0.255,-0.06 0.309,-0.06C0.362,-0.06 0.406,-0.079 0.439,-0.116C0.47,-0.151 0.486,-0.196 0.486,-0.25C0.486,-0.304 0.47,-0.349 0.439,-0.384C0.406,-0.421 0.362,-0.44 0.309,-0.44Z" style="fill:white;fill-rule:nonzero;"/>
            </g>
            <g transform="matrix(16,0,0,16,6.90545,78.7148)">
                <path d="M0.282,-0.508C0.357,-0.508 0.417,-0.483 0.464,-0.433C0.508,-0.385 0.53,-0.324 0.53,-0.25C0.53,-0.176 0.508,-0.115 0.464,-0.067C0.417,-0.017 0.357,0.008 0.282,0.008C0.207,0.008 0.147,-0.017 0.1,-0.067C0.056,-0.115 0.034,-0.176 0.034,-0.25C0.034,-0.324 0.056,-0.385 0.1,-0.433C0.147,-0.483 0.207,-0.508 0.282,-0.508ZM0.282,-0.06C0.336,-0.06 0.379,-0.079 0.41,-0.116C0.44,-0.151 0.455,-0.196 0.455,-0.25C0.455,-0.304 0.44,-0.349 0.41,-0.384C0.379,-0.421 0.336,-0.44 0.282,-0.44C0.228,-0.44 0.185,-0.421 0.154,-0.384C0.124,-0.349 0.109,-0.304 0.109,-0.25C0.109,-0.196 0.124,-0.151 0.154,-0.116C0.185,-0.079 0.228,-0.06 0.282,-0.06Z" style="fill:white;fill-rule:nonzero;"/>
            </g>
            <g transform="matrix(16,0,0,16,15.9294,78.7148)">
                <path d="M0.329,-0.508L0.329,-0.433L0.32,-0.433C0.266,-0.433 0.222,-0.411 0.188,-0.368C0.156,-0.327 0.14,-0.277 0.14,-0.22L0.14,0L0.065,0L0.065,-0.5L0.14,-0.5L0.14,-0.377C0.156,-0.429 0.191,-0.467 0.244,-0.492C0.266,-0.503 0.293,-0.508 0.324,-0.508L0.329,-0.508Z" style="fill:white;fill-rule:nonzero;"/>
            </g>
            <g transform="matrix(16,0,0,16,21.4494,78.7148)">
                <path d="M0.119,0L0.119,-0.434L0.017,-0.434L0.017,-0.5L0.119,-0.5L0.119,-0.679L0.194,-0.679L0.194,-0.5L0.309,-0.5L0.309,-0.434L0.194,-0.434L0.194,0L0.119,0Z" style="fill:white;fill-rule:nonzero;"/>
            </g>
            <g transform="matrix(16,0,0,16,30.0734,78.7148)">
                <path d="M0.156,0L0.081,0L0.081,-0.662L0.379,-0.662C0.449,-0.662 0.505,-0.643 0.546,-0.604C0.587,-0.565 0.607,-0.514 0.607,-0.449C0.607,-0.384 0.587,-0.332 0.546,-0.294C0.504,-0.255 0.449,-0.236 0.379,-0.236L0.156,-0.236L0.156,0ZM0.156,-0.591L0.156,-0.306L0.374,-0.306C0.426,-0.306 0.465,-0.319 0.492,-0.344C0.519,-0.369 0.532,-0.404 0.532,-0.449C0.532,-0.493 0.519,-0.528 0.492,-0.553C0.465,-0.578 0.426,-0.591 0.374,-0.591L0.156,-0.591Z" style="fill:white;fill-rule:nonzero;"/>
            </g>
            <g transform="matrix(16,0,0,16,40.1214,78.7148)">
                <path d="M0.329,-0.508L0.329,-0.433L0.32,-0.433C0.266,-0.433 0.222,-0.411 0.188,-0.368C0.156,-0.327 0.14,-0.277 0.14,-0.22L0.14,0L0.065,0L0.065,-0.5L0.14,-0.5L0.14,-0.377C0.156,-0.429 0.191,-0.467 0.244,-0.492C0.266,-0.503 0.293,-0.508 0.324,-0.508L0.329,-0.508Z" style="fill:white;fill-rule:nonzero;"/>
            </g>
            <g transform="matrix(16,0,0,16,45.4334,78.7148)">
                <path d="M0.282,-0.508C0.357,-0.508 0.417,-0.483 0.464,-0.433C0.508,-0.385 0.53,-0.324 0.53,-0.25C0.53,-0.176 0.508,-0.115 0.464,-0.067C0.417,-0.017 0.357,0.008 0.282,0.008C0.207,0.008 0.147,-0.017 0.1,-0.067C0.056,-0.115 0.034,-0.176 0.034,-0.25C0.034,-0.324 0.056,-0.385 0.1,-0.433C0.147,-0.483 0.207,-0.508 0.282,-0.508ZM0.282,-0.06C0.336,-0.06 0.379,-0.079 0.41,-0.116C0.44,-0.151 0.455,-0.196 0.455,-0.25C0.455,-0.304 0.44,-0.349 0.41,-0.384C0.379,-0.421 0.336,-0.44 0.282,-0.44C0.228,-0.44 0.185,-0.421 0.154,-0.384C0.124,-0.349 0.109,-0.304 0.109,-0.25C0.109,-0.196 0.124,-0.151 0.154,-0.116C0.185,-0.079 0.228,-0.06 0.282,-0.06Z" style="fill:white;fill-rule:nonzero;"/>
            </g>
            <g transform="matrix(16,0,0,16,54.4574,78.7148)">
                <path d="M0.455,-0.42L0.455,-0.5L0.53,-0.5L0.53,-0.015C0.53,0.057 0.509,0.112 0.469,0.149C0.428,0.187 0.372,0.206 0.303,0.206C0.234,0.206 0.18,0.193 0.141,0.166C0.102,0.139 0.075,0.104 0.061,0.06L0.144,0.06C0.165,0.112 0.214,0.138 0.29,0.138C0.348,0.138 0.39,0.125 0.416,0.098C0.442,0.071 0.455,0.032 0.455,-0.02L0.455,-0.089C0.414,-0.03 0.355,0 0.276,0C0.204,0 0.145,-0.025 0.1,-0.074C0.056,-0.122 0.034,-0.182 0.034,-0.254C0.034,-0.326 0.056,-0.386 0.1,-0.434C0.145,-0.483 0.206,-0.508 0.281,-0.508C0.357,-0.508 0.415,-0.479 0.455,-0.42ZM0.286,-0.068C0.313,-0.068 0.338,-0.073 0.359,-0.083C0.38,-0.092 0.399,-0.105 0.414,-0.122C0.444,-0.157 0.459,-0.201 0.459,-0.254C0.459,-0.307 0.444,-0.351 0.414,-0.386C0.381,-0.422 0.339,-0.44 0.286,-0.44C0.232,-0.44 0.189,-0.422 0.156,-0.386C0.125,-0.351 0.109,-0.307 0.109,-0.254C0.109,-0.201 0.125,-0.157 0.156,-0.122C0.189,-0.086 0.232,-0.068 0.286,-0.068Z" style="fill:white;fill-rule:nonzero;"/>
            </g>
            <g transform="matrix(16,0,0,16,63.9774,78.7148)">
                <path d="M0.329,-0.508L0.329,-0.433L0.32,-0.433C0.266,-0.433 0.222,-0.411 0.188,-0.368C0.156,-0.327 0.14,-0.277 0.14,-0.22L0.14,0L0.065,0L0.065,-0.5L0.14,-0.5L0.14,-0.377C0.156,-0.429 0.191,-0.467 0.244,-0.492C0.266,-0.503 0.293,-0.508 0.324,-0.508L0.329,-0.508Z" style="fill:white;fill-rule:nonzero;"/>
            </g>
            <g transform="matrix(16,0,0,16,69.2894,78.7148)">
                <path d="M0.455,-0.08C0.415,-0.021 0.355,0.008 0.276,0.008C0.204,0.008 0.145,-0.017 0.1,-0.067C0.056,-0.116 0.034,-0.177 0.034,-0.25C0.034,-0.323 0.056,-0.384 0.1,-0.433C0.145,-0.483 0.206,-0.508 0.281,-0.508C0.356,-0.508 0.414,-0.478 0.455,-0.419L0.455,-0.5L0.53,-0.5L0.53,0L0.455,0L0.455,-0.08ZM0.286,-0.06C0.34,-0.06 0.383,-0.079 0.414,-0.116C0.444,-0.151 0.459,-0.196 0.459,-0.25C0.459,-0.304 0.444,-0.349 0.414,-0.384C0.383,-0.421 0.34,-0.44 0.286,-0.44C0.233,-0.44 0.189,-0.421 0.156,-0.384C0.125,-0.349 0.109,-0.304 0.109,-0.25C0.109,-0.196 0.125,-0.151 0.156,-0.116C0.189,-0.079 0.233,-0.06 0.286,-0.06Z" style="fill:white;fill-rule:nonzero;"/>
            </g>
            <g transform="matrix(16,0,0,16,78.8094,78.7148)">
                <path d="M0.14,-0.424C0.173,-0.48 0.224,-0.508 0.292,-0.508C0.325,-0.508 0.356,-0.499 0.385,-0.482C0.413,-0.464 0.435,-0.439 0.451,-0.407C0.474,-0.449 0.509,-0.479 0.557,-0.497C0.576,-0.504 0.598,-0.508 0.623,-0.508C0.647,-0.508 0.67,-0.503 0.693,-0.494C0.715,-0.484 0.735,-0.47 0.752,-0.452C0.789,-0.412 0.808,-0.362 0.808,-0.302L0.808,0L0.733,0L0.733,-0.3C0.733,-0.341 0.721,-0.375 0.698,-0.402C0.675,-0.427 0.645,-0.44 0.609,-0.44C0.571,-0.44 0.539,-0.428 0.514,-0.403C0.487,-0.378 0.474,-0.343 0.474,-0.299L0.474,0L0.399,0L0.399,-0.3C0.399,-0.341 0.387,-0.375 0.364,-0.402C0.341,-0.427 0.311,-0.44 0.275,-0.44C0.237,-0.44 0.205,-0.428 0.18,-0.403C0.153,-0.378 0.14,-0.343 0.14,-0.299L0.14,0L0.065,0L0.065,-0.5L0.14,-0.5L0.14,-0.424Z" style="fill:white;fill-rule:nonzero;"/>
            </g>
        </g>
        <g transform="matrix(1,0,0,1,39.0543,8.7338)">
            <g transform="matrix(12,0,0,12,-20.2786,78.7148)">
                <path d="M0.156,0L0.081,0L0.081,-0.662L0.379,-0.662C0.449,-0.662 0.505,-0.643 0.546,-0.604C0.587,-0.565 0.607,-0.514 0.607,-0.449C0.607,-0.384 0.587,-0.332 0.546,-0.294C0.504,-0.255 0.449,-0.236 0.379,-0.236L0.156,-0.236L0.156,0ZM0.156,-0.591L0.156,-0.306L0.374,-0.306C0.426,-0.306 0.465,-0.319 0.492,-0.344C0.519,-0.369 0.532,-0.404 0.532,-0.449C0.532,-0.493 0.519,-0.528 0.492,-0.553C0.465,-0.578 0.426,-0.591 0.374,-0.591L0.156,-0.591Z" style="fill:rgb(145,145,145);fill-rule:nonzero;"/>
            </g>
            <g transform="matrix(12,0,0,12,-12.8146,78.7148)">
                <path d="M0.455,-0.08C0.415,-0.021 0.355,0.008 0.276,0.008C0.204,0.008 0.145,-0.017 0.1,-0.067C0.056,-0.116 0.034,-0.177 0.034,-0.25C0.034,-0.323 0.056,-0.384 0.1,-0.433C0.145,-0.483 0.206,-0.508 0.281,-0.508C0.356,-0.508 0.414,-0.478 0.455,-0.419L0.455,-0.5L0.53,-0.5L0.53,0L0.455,0L0.455,-0.08ZM0.286,-0.06C0.34,-0.06 0.383,-0.079 0.414,-0.116C0.444,-0.151 0.459,-0.196 0.459,-0.25C0.459,-0.304 0.444,-0.349 0.414,-0.384C0.383,-0.421 0.34,-0.44 0.286,-0.44C0.233,-0.44 0.189,-0.421 0.156,-0.384C0.125,-0.349 0.109,-0.304 0.109,-0.25C0.109,-0.196 0.125,-0.151 0.156,-0.116C0.189,-0.079 0.233,-0.06 0.286,-0.06Z" style="fill:rgb(145,145,145);fill-rule:nonzero;"/>
            </g>
            <g transform="matrix(12,0,0,12,-5.67455,78.7148)">
                <path d="M0.359,-0.366C0.352,-0.418 0.311,-0.444 0.234,-0.444C0.157,-0.444 0.118,-0.42 0.118,-0.372C0.118,-0.352 0.126,-0.337 0.142,-0.327C0.159,-0.316 0.179,-0.308 0.204,-0.301C0.229,-0.294 0.256,-0.288 0.284,-0.282C0.314,-0.277 0.34,-0.269 0.365,-0.259C0.39,-0.248 0.41,-0.234 0.427,-0.216C0.443,-0.198 0.451,-0.173 0.451,-0.142C0.451,-0.093 0.433,-0.056 0.396,-0.031C0.359,-0.005 0.31,0.008 0.247,0.008C0.18,0.008 0.127,-0.009 0.088,-0.042C0.052,-0.071 0.033,-0.11 0.03,-0.157L0.108,-0.157C0.113,-0.111 0.139,-0.08 0.186,-0.064C0.203,-0.059 0.221,-0.056 0.237,-0.056C0.255,-0.056 0.27,-0.057 0.285,-0.059C0.3,-0.061 0.314,-0.065 0.328,-0.07C0.36,-0.083 0.376,-0.104 0.376,-0.135C0.376,-0.156 0.368,-0.172 0.352,-0.183C0.335,-0.194 0.315,-0.203 0.29,-0.21C0.265,-0.217 0.238,-0.223 0.21,-0.229C0.181,-0.234 0.154,-0.242 0.129,-0.252C0.104,-0.262 0.084,-0.276 0.068,-0.293C0.051,-0.31 0.043,-0.334 0.043,-0.365C0.043,-0.41 0.059,-0.446 0.093,-0.47C0.126,-0.496 0.174,-0.508 0.239,-0.508C0.3,-0.508 0.349,-0.493 0.384,-0.464C0.413,-0.439 0.43,-0.407 0.435,-0.366L0.359,-0.366Z" style="fill:rgb(145,145,145);fill-rule:nonzero;"/>
            </g>
            <g transform="matrix(12,0,0,12,0.109446,78.7148)">
                <path d="M0.119,0L0.119,-0.434L0.017,-0.434L0.017,-0.5L0.119,-0.5L0.119,-0.679L0.194,-0.679L0.194,-0.5L0.309,-0.5L0.309,-0.434L0.194,-0.434L0.194,0L0.119,0Z" style="fill:rgb(145,145,145);fill-rule:nonzero;"/>
            </g>
            <g transform="matrix(12,0,0,12,3.90145,78.7148)">
                <path d="M0.288,-0.06C0.355,-0.06 0.404,-0.088 0.433,-0.144L0.515,-0.144C0.498,-0.099 0.47,-0.062 0.433,-0.034C0.395,-0.006 0.346,0.008 0.287,0.008C0.212,0.008 0.15,-0.017 0.103,-0.067C0.057,-0.116 0.034,-0.177 0.034,-0.25C0.034,-0.324 0.056,-0.385 0.1,-0.433C0.147,-0.483 0.207,-0.508 0.282,-0.508C0.357,-0.508 0.417,-0.483 0.464,-0.433C0.508,-0.385 0.53,-0.324 0.53,-0.25L0.53,-0.22L0.111,-0.22C0.116,-0.174 0.135,-0.136 0.166,-0.106C0.198,-0.075 0.239,-0.06 0.288,-0.06ZM0.282,-0.44C0.236,-0.44 0.197,-0.426 0.166,-0.397C0.137,-0.37 0.119,-0.334 0.112,-0.29L0.452,-0.29C0.445,-0.334 0.427,-0.37 0.398,-0.397C0.367,-0.426 0.328,-0.44 0.282,-0.44Z" style="fill:rgb(145,145,145);fill-rule:nonzero;"/>
            </g>
            <g transform="matrix(12,0,0,12,13.1414,78.7148)">
                <path d="M0.198,0.198L0.117,0.198L0.208,-0.007L0.004,-0.5L0.087,-0.5L0.248,-0.09L0.412,-0.5L0.494,-0.5L0.198,0.198Z" style="fill:rgb(145,145,145);fill-rule:nonzero;"/>
            </g>
            <g transform="matrix(12,0,0,12,19.0094,78.7148)">
                <path d="M0.282,-0.508C0.357,-0.508 0.417,-0.483 0.464,-0.433C0.508,-0.385 0.53,-0.324 0.53,-0.25C0.53,-0.176 0.508,-0.115 0.464,-0.067C0.417,-0.017 0.357,0.008 0.282,0.008C0.207,0.008 0.147,-0.017 0.1,-0.067C0.056,-0.115 0.034,-0.176 0.034,-0.25C0.034,-0.324 0.056,-0.385 0.1,-0.433C0.147,-0.483 0.207,-0.508 0.282,-0.508ZM0.282,-0.06C0.336,-0.06 0.379,-0.079 0.41,-0.116C0.44,-0.151 0.455,-0.196 0.455,-0.25C0.455,-0.304 0.44,-0.349 0.41,-0.384C0.379,-0.421 0.336,-0.44 0.282,-0.44C0.228,-0.44 0.185,-0.421 0.154,-0.384C0.124,-0.349 0.109,-0.304 0.109,-0.25C0.109,-0.196 0.124,-0.151 0.154,-0.116C0.185,-0.079 0.228,-0.06 0.282,-0.06Z" style="fill:rgb(145,145,145);fill-rule:nonzero;"/>
            </g>
            <g transform="matrix(12,0,0,12,25.7774,78.7148)">
                <path d="M0.426,0L0.426,-0.078C0.408,-0.054 0.386,-0.034 0.36,-0.017C0.334,0 0.304,0.008 0.271,0.008C0.238,0.008 0.209,0.003 0.185,-0.006C0.161,-0.015 0.14,-0.029 0.122,-0.048C0.081,-0.089 0.06,-0.142 0.06,-0.209L0.06,-0.5L0.135,-0.5L0.135,-0.211C0.135,-0.165 0.148,-0.128 0.174,-0.101C0.2,-0.074 0.234,-0.06 0.275,-0.06C0.317,-0.06 0.353,-0.074 0.382,-0.102C0.411,-0.131 0.426,-0.167 0.426,-0.212L0.426,-0.5L0.501,-0.5L0.501,0L0.426,0Z" style="fill:rgb(145,145,145);fill-rule:nonzero;"/>
            </g>
            <g transform="matrix(12,0,0,12,32.5694,78.7148)">
                <path d="M0.329,-0.508L0.329,-0.433L0.32,-0.433C0.266,-0.433 0.222,-0.411 0.188,-0.368C0.156,-0.327 0.14,-0.277 0.14,-0.22L0.14,0L0.065,0L0.065,-0.5L0.14,-0.5L0.14,-0.377C0.156,-0.429 0.191,-0.467 0.244,-0.492C0.266,-0.503 0.293,-0.508 0.324,-0.508L0.329,-0.508Z" style="fill:rgb(145,145,145);fill-rule:nonzero;"/>
            </g>
            <g transform="matrix(12,0,0,12,39.2654,78.7148)">
                <path d="M0.296,-0.06C0.328,-0.06 0.356,-0.069 0.381,-0.087C0.406,-0.105 0.424,-0.128 0.435,-0.157L0.516,-0.157C0.501,-0.108 0.473,-0.068 0.432,-0.038C0.389,-0.007 0.339,0.008 0.28,0.008C0.207,0.008 0.147,-0.017 0.101,-0.067C0.056,-0.116 0.034,-0.177 0.034,-0.25C0.034,-0.323 0.056,-0.384 0.101,-0.433C0.147,-0.483 0.207,-0.508 0.28,-0.508C0.339,-0.508 0.389,-0.493 0.432,-0.462C0.473,-0.432 0.501,-0.392 0.516,-0.343L0.435,-0.343C0.424,-0.372 0.406,-0.395 0.381,-0.413C0.356,-0.431 0.328,-0.44 0.296,-0.44C0.264,-0.44 0.237,-0.435 0.215,-0.425C0.192,-0.415 0.173,-0.401 0.158,-0.384C0.125,-0.348 0.109,-0.303 0.109,-0.25C0.109,-0.197 0.125,-0.152 0.158,-0.116C0.191,-0.079 0.237,-0.06 0.296,-0.06Z" style="fill:rgb(145,145,145);fill-rule:nonzero;"/>
            </g>
            <g transform="matrix(12,0,0,12,45.7934,78.7148)">
                <path d="M0.282,-0.508C0.357,-0.508 0.417,-0.483 0.464,-0.433C0.508,-0.385 0.53,-0.324 0.53,-0.25C0.53,-0.176 0.508,-0.115 0.464,-0.067C0.417,-0.017 0.357,0.008 0.282,0.008C0.207,0.008 0.147,-0.017 0.1,-0.067C0.056,-0.115 0.034,-0.176 0.034,-0.25C0.034,-0.324 0.056,-0.385 0.1,-0.433C0.147,-0.483 0.207,-0.508 0.282,-0.508ZM0.282,-0.06C0.336,-0.06 0.379,-0.079 0.41,-0.116C0.44,-0.151 0.455,-0.196 0.455,-0.25C0.455,-0.304 0.44,-0.349 0.41,-0.384C0.379,-0.421 0.336,-0.44 0.282,-0.44C0.228,-0.44 0.185,-0.421 0.154,-0.384C0.124,-0.349 0.109,-0.304 0.109,-0.25C0.109,-0.196 0.124,-0.151 0.154,-0.116C0.185,-0.079 0.228,-0.06 0.282,-0.06Z" style="fill:rgb(145,145,145);fill-rule:nonzero;"/>
            </g>
            <g transform="matrix(12,0,0,12,52.5614,78.7148)">
                <path d="M0.455,-0.08C0.415,-0.021 0.355,0.008 0.276,0.008C0.204,0.008 0.145,-0.017 0.1,-0.067C0.056,-0.116 0.034,-0.177 0.034,-0.25C0.034,-0.323 0.056,-0.384 0.1,-0.433C0.145,-0.483 0.206,-0.508 0.281,-0.508C0.356,-0.508 0.414,-0.478 0.455,-0.419L0.455,-0.7L0.53,-0.7L0.53,0L0.455,0L0.455,-0.08ZM0.286,-0.06C0.34,-0.06 0.383,-0.079 0.414,-0.116C0.444,-0.151 0.459,-0.196 0.459,-0.25C0.459,-0.304 0.444,-0.349 0.414,-0.384C0.383,-0.421 0.34,-0.44 0.286,-0.44C0.233,-0.44 0.189,-0.421 0.156,-0.384C0.125,-0.349 0.109,-0.304 0.109,-0.25C0.109,-0.196 0.125,-0.151 0.156,-0.116C0.189,-0.079 0.233,-0.06 0.286,-0.06Z" style="fill:rgb(145,145,145);fill-rule:nonzero;"/>
            </g>
            <g transform="matrix(12,0,0,12,59.7014,78.7148)">
                <path d="M0.288,-0.06C0.355,-0.06 0.404,-0.088 0.433,-0.144L0.515,-0.144C0.498,-0.099 0.47,-0.062 0.433,-0.034C0.395,-0.006 0.346,0.008 0.287,0.008C0.212,0.008 0.15,-0.017 0.103,-0.067C0.057,-0.116 0.034,-0.177 0.034,-0.25C0.034,-0.324 0.056,-0.385 0.1,-0.433C0.147,-0.483 0.207,-0.508 0.282,-0.508C0.357,-0.508 0.417,-0.483 0.464,-0.433C0.508,-0.385 0.53,-0.324 0.53,-0.25L0.53,-0.22L0.111,-0.22C0.116,-0.174 0.135,-0.136 0.166,-0.106C0.198,-0.075 0.239,-0.06 0.288,-0.06ZM0.282,-0.44C0.236,-0.44 0.197,-0.426 0.166,-0.397C0.137,-0.37 0.119,-0.334 0.112,-0.29L0.452,-0.29C0.445,-0.334 0.427,-0.37 0.398,-0.397C0.367,-0.426 0.328,-0.44 0.282,-0.44Z" style="fill:rgb(145,145,145);fill-rule:nonzero;"/>
            </g>
            <g transform="matrix(12,0,0,12,68.9414,78.7148)">
                <path d="M0.14,-0.419C0.181,-0.478 0.24,-0.508 0.319,-0.508C0.391,-0.508 0.449,-0.483 0.494,-0.433C0.539,-0.384 0.561,-0.323 0.561,-0.25C0.561,-0.177 0.539,-0.116 0.494,-0.067C0.449,-0.017 0.389,0.008 0.314,0.008C0.238,0.008 0.18,-0.021 0.14,-0.08L0.14,0L0.065,0L0.065,-0.7L0.14,-0.7L0.14,-0.419ZM0.309,-0.06C0.362,-0.06 0.406,-0.079 0.439,-0.116C0.47,-0.151 0.486,-0.196 0.486,-0.25C0.486,-0.304 0.47,-0.349 0.439,-0.384C0.406,-0.421 0.362,-0.44 0.309,-0.44C0.255,-0.44 0.212,-0.421 0.181,-0.384C0.151,-0.349 0.136,-0.304 0.136,-0.25C0.136,-0.196 0.151,-0.151 0.181,-0.116C0.212,-0.079 0.255,-0.06 0.309,-0.06Z" style="fill:rgb(145,145,145);fill-rule:nonzero;"/>
            </g>
            <g transform="matrix(12,0,0,12,76.0694,78.7148)">
                <path d="M0.288,-0.06C0.355,-0.06 0.404,-0.088 0.433,-0.144L0.515,-0.144C0.498,-0.099 0.47,-0.062 0.433,-0.034C0.395,-0.006 0.346,0.008 0.287,0.008C0.212,0.008 0.15,-0.017 0.103,-0.067C0.057,-0.116 0.034,-0.177 0.034,-0.25C0.034,-0.324 0.056,-0.385 0.1,-0.433C0.147,-0.483 0.207,-0.508 0.282,-0.508C0.357,-0.508 0.417,-0.483 0.464,-0.433C0.508,-0.385 0.53,-0.324 0.53,-0.25L0.53,-0.22L0.111,-0.22C0.116,-0.174 0.135,-0.136 0.166,-0.106C0.198,-0.075 0.239,-0.06 0.288,-0.06ZM0.282,-0.44C0.236,-0.44 0.197,-0.426 0.166,-0.397C0.137,-0.37 0.119,-0.334 0.112,-0.29L0.452,-0.29C0.445,-0.334 0.427,-0.37 0.398,-0.397C0.367,-0.426 0.328,-0.44 0.282,-0.44Z" style="fill:rgb(145,145,145);fill-rule:nonzero;"/>
            </g>
            <g transform="matrix(12,0,0,12,82.7534,78.7148)">
                <rect x="0.065" y="-0.7" width="0.075" height="0.7" style="fill:rgb(145,145,145);fill-rule:nonzero;"/>
            </g>
            <g transform="matrix(12,0,0,12,85.2134,78.7148)">
                <path d="M0.282,-0.508C0.357,-0.508 0.417,-0.483 0.464,-0.433C0.508,-0.385 0.53,-0.324 0.53,-0.25C0.53,-0.176 0.508,-0.115 0.464,-0.067C0.417,-0.017 0.357,0.008 0.282,0.008C0.207,0.008 0.147,-0.017 0.1,-0.067C0.056,-0.115 0.034,-0.176 0.034,-0.25C0.034,-0.324 0.056,-0.385 0.1,-0.433C0.147,-0.483 0.207,-0.508 0.282,-0.508ZM0.282,-0.06C0.336,-0.06 0.379,-0.079 0.41,-0.116C0.44,-0.151 0.455,-0.196 0.455,-0.25C0.455,-0.304 0.44,-0.349 0.41,-0.384C0.379,-0.421 0.336,-0.44 0.282,-0.44C0.228,-0.44 0.185,-0.421 0.154,-0.384C0.124,-0.349 0.109,-0.304 0.109,-0.25C0.109,-0.196 0.124,-0.151 0.154,-0.116C0.185,-0.079 0.228,-0.06 0.282,-0.06Z" style="fill:rgb(145,145,145);fill-rule:nonzero;"/>
            </g>
            <g transform="matrix(12,0,0,12,91.9334,78.7148)">
                <path d="M0.377,-0.399L0.252,0L0.166,0L0.009,-0.5L0.089,-0.5L0.209,-0.093L0.336,-0.5L0.418,-0.5L0.545,-0.093L0.665,-0.5L0.745,-0.5L0.588,0L0.502,0L0.377,-0.399Z" style="fill:rgb(145,145,145);fill-rule:nonzero;"/>
            </g>
            <g transform="matrix(12,0,0,12,103.537,78.7148)">
                <path d="M0.065,-0.5L0.14,-0.5L0.14,0L0.065,0L0.065,-0.5ZM0.143,-0.682L0.143,-0.584L0.062,-0.584L0.062,-0.682L0.143,-0.682Z" style="fill:rgb(145,145,145);fill-rule:nonzero;"/>
            </g>
            <g transform="matrix(12,0,0,12,105.997,78.7148)">
                <path d="M0.14,-0.5L0.14,-0.422C0.158,-0.446 0.18,-0.466 0.206,-0.483C0.232,-0.5 0.262,-0.508 0.295,-0.508C0.328,-0.508 0.357,-0.503 0.381,-0.494C0.405,-0.485 0.426,-0.471 0.444,-0.452C0.485,-0.411 0.506,-0.358 0.506,-0.291L0.506,0L0.431,0L0.431,-0.289C0.431,-0.335 0.418,-0.372 0.392,-0.399C0.366,-0.426 0.332,-0.44 0.291,-0.44C0.249,-0.44 0.213,-0.426 0.184,-0.398C0.155,-0.369 0.14,-0.333 0.14,-0.288L0.14,0L0.065,0L0.065,-0.5L0.14,-0.5Z" style="fill:rgb(145,145,145);fill-rule:nonzero;"/>
            </g>
            <g transform="matrix(12,0,0,12,112.645,78.7148)">
                <path d="M0.119,0L0.119,-0.434L0.017,-0.434L0.017,-0.5L0.119,-0.5L0.119,-0.679L0.194,-0.679L0.194,-0.5L0.309,-0.5L0.309,-0.434L0.194,-0.434L0.194,0L0.119,0Z" style="fill:rgb(145,145,145);fill-rule:nonzero;"/>
            </g>
            <g transform="matrix(12,0,0,12,116.437,78.7148)">
                <path d="M0.282,-0.508C0.357,-0.508 0.417,-0.483 0.464,-0.433C0.508,-0.385 0.53,-0.324 0.53,-0.25C0.53,-0.176 0.508,-0.115 0.464,-0.067C0.417,-0.017 0.357,0.008 0.282,0.008C0.207,0.008 0.147,-0.017 0.1,-0.067C0.056,-0.115 0.034,-0.176 0.034,-0.25C0.034,-0.324 0.056,-0.385 0.1,-0.433C0.147,-0.483 0.207,-0.508 0.282,-0.508ZM0.282,-0.06C0.336,-0.06 0.379,-0.079 0.41,-0.116C0.44,-0.151 0.455,-0.196 0.455,-0.25C0.455,-0.304 0.44,-0.349 0.41,-0.384C0.379,-0.421 0.336,-0.44 0.282,-0.44C0.228,-0.44 0.185,-0.421 0.154,-0.384C0.124,-0.349 0.109,-0.304 0.109,-0.25C0.109,-0.196 0.124,-0.151 0.154,-0.116C0.185,-0.079 0.228,-0.06 0.282,-0.06Z" style="fill:rgb(145,145,145);fill-rule:nonzero;"/>
            </g>
            <g transform="matrix(12,0,0,12,125.761,78.7148)">
                <path d="M0.119,0L0.119,-0.434L0.017,-0.434L0.017,-0.5L0.119,-0.5L0.119,-0.679L0.194,-0.679L0.194,-0.5L0.309,-0.5L0.309,-0.434L0.194,-0.434L0.194,0L0.119,0Z" style="fill:rgb(145,145,145);fill-rule:nonzero;"/>
            </g>
            <g transform="matrix(12,0,0,12,129.673,78.7148)">
                <path d="M0.14,-0.7L0.14,-0.422C0.158,-0.446 0.18,-0.466 0.206,-0.483C0.232,-0.5 0.262,-0.508 0.295,-0.508C0.328,-0.508 0.357,-0.503 0.381,-0.494C0.405,-0.485 0.426,-0.471 0.444,-0.452C0.485,-0.411 0.506,-0.358 0.506,-0.291L0.506,0L0.431,0L0.431,-0.289C0.431,-0.335 0.418,-0.372 0.392,-0.399C0.366,-0.426 0.332,-0.44 0.291,-0.44C0.249,-0.44 0.213,-0.426 0.184,-0.398C0.155,-0.369 0.14,-0.333 0.14,-0.288L0.14,0L0.065,0L0.065,-0.7L0.14,-0.7Z" style="fill:rgb(145,145,145);fill-rule:nonzero;"/>
            </g>
            <g transform="matrix(12,0,0,12,136.465,78.7148)">
                <path d="M0.288,-0.06C0.355,-0.06 0.404,-0.088 0.433,-0.144L0.515,-0.144C0.498,-0.099 0.47,-0.062 0.433,-0.034C0.395,-0.006 0.346,0.008 0.287,0.008C0.212,0.008 0.15,-0.017 0.103,-0.067C0.057,-0.116 0.034,-0.177 0.034,-0.25C0.034,-0.324 0.056,-0.385 0.1,-0.433C0.147,-0.483 0.207,-0.508 0.282,-0.508C0.357,-0.508 0.417,-0.483 0.464,-0.433C0.508,-0.385 0.53,-0.324 0.53,-0.25L0.53,-0.22L0.111,-0.22C0.116,-0.174 0.135,-0.136 0.166,-0.106C0.198,-0.075 0.239,-0.06 0.288,-0.06ZM0.282,-0.44C0.236,-0.44 0.197,-0.426 0.166,-0.397C0.137,-0.37 0.119,-0.334 0.112,-0.29L0.452,-0.29C0.445,-0.334 0.427,-0.37 0.398,-0.397C0.367,-0.426 0.328,-0.44 0.282,-0.44Z" style="fill:rgb(145,145,145);fill-rule:nonzero;"/>
            </g>
            <g transform="matrix(12,0,0,12,145.705,78.7148)">
                <path d="M0.455,-0.08C0.415,-0.021 0.355,0.008 0.276,0.008C0.204,0.008 0.145,-0.017 0.1,-0.067C0.056,-0.116 0.034,-0.177 0.034,-0.25C0.034,-0.323 0.056,-0.384 0.1,-0.433C0.145,-0.483 0.206,-0.508 0.281,-0.508C0.356,-0.508 0.414,-0.478 0.455,-0.419L0.455,-0.5L0.53,-0.5L0.53,0L0.455,0L0.455,-0.08ZM0.286,-0.06C0.34,-0.06 0.383,-0.079 0.414,-0.116C0.444,-0.151 0.459,-0.196 0.459,-0.25C0.459,-0.304 0.444,-0.349 0.414,-0.384C0.383,-0.421 0.34,-0.44 0.286,-0.44C0.233,-0.44 0.189,-0.421 0.156,-0.384C0.125,-0.349 0.109,-0.304 0.109,-0.25C0.109,-0.196 0.125,-0.151 0.156,-0.116C0.189,-0.079 0.233,-0.06 0.286,-0.06Z" style="fill:rgb(145,145,145);fill-rule:nonzero;"/>
            </g>
            <g transform="matrix(12,0,0,12,152.845,78.7148)">
                <path d="M0.359,-0.366C0.352,-0.418 0.311,-0.444 0.234,-0.444C0.157,-0.444 0.118,-0.42 0.118,-0.372C0.118,-0.352 0.126,-0.337 0.142,-0.327C0.159,-0.316 0.179,-0.308 0.204,-0.301C0.229,-0.294 0.256,-0.288 0.284,-0.282C0.314,-0.277 0.34,-0.269 0.365,-0.259C0.39,-0.248 0.41,-0.234 0.427,-0.216C0.443,-0.198 0.451,-0.173 0.451,-0.142C0.451,-0.093 0.433,-0.056 0.396,-0.031C0.359,-0.005 0.31,0.008 0.247,0.008C0.18,0.008 0.127,-0.009 0.088,-0.042C0.052,-0.071 0.033,-0.11 0.03,-0.157L0.108,-0.157C0.113,-0.111 0.139,-0.08 0.186,-0.064C0.203,-0.059 0.221,-0.056 0.237,-0.056C0.255,-0.056 0.27,-0.057 0.285,-0.059C0.3,-0.061 0.314,-0.065 0.328,-0.07C0.36,-0.083 0.376,-0.104 0.376,-0.135C0.376,-0.156 0.368,-0.172 0.352,-0.183C0.335,-0.194 0.315,-0.203 0.29,-0.21C0.265,-0.217 0.238,-0.223 0.21,-0.229C0.181,-0.234 0.154,-0.242 0.129,-0.252C0.104,-0.262 0.084,-0.276 0.068,-0.293C0.051,-0.31 0.043,-0.334 0.043,-0.365C0.043,-0.41 0.059,-0.446 0.093,-0.47C0.126,-0.496 0.174,-0.508 0.239,-0.508C0.3,-0.508 0.349,-0.493 0.384,-0.464C0.413,-0.439 0.43,-0.407 0.435,-0.366L0.359,-0.366Z" style="fill:rgb(145,145,145);fill-rule:nonzero;"/>
            </g>
            <g transform="matrix(12,0,0,12,158.629,78.7148)">
                <path d="M0.285,-0.303L0.501,0L0.409,0L0.234,-0.251L0.14,-0.158L0.14,0L0.065,0L0.065,-0.7L0.14,-0.7L0.14,-0.252L0.381,-0.5L0.486,-0.5L0.285,-0.303Z" style="fill:rgb(145,145,145);fill-rule:nonzero;"/>
            </g>
            <g transform="matrix(12,0,0,12,167.209,78.7148)">
                <path d="M0.14,-0.419C0.181,-0.478 0.24,-0.508 0.319,-0.508C0.391,-0.508 0.449,-0.483 0.494,-0.433C0.539,-0.384 0.561,-0.323 0.561,-0.25C0.561,-0.177 0.539,-0.116 0.494,-0.067C0.449,-0.017 0.389,0.008 0.314,0.008C0.238,0.008 0.18,-0.021 0.14,-0.08L0.14,0L0.065,0L0.065,-0.7L0.14,-0.7L0.14,-0.419ZM0.309,-0.06C0.362,-0.06 0.406,-0.079 0.439,-0.116C0.47,-0.151 0.486,-0.196 0.486,-0.25C0.486,-0.304 0.47,-0.349 0.439,-0.384C0.406,-0.421 0.362,-0.44 0.309,-0.44C0.255,-0.44 0.212,-0.421 0.181,-0.384C0.151,-0.349 0.136,-0.304 0.136,-0.25C0.136,-0.196 0.151,-0.151 0.181,-0.116C0.212,-0.079 0.255,-0.06 0.309,-0.06Z" style="fill:rgb(145,145,145);fill-rule:nonzero;"/>
            </g>
            <g transform="matrix(12,0,0,12,174.337,78.7148)">
                <path d="M0.282,-0.508C0.357,-0.508 0.417,-0.483 0.464,-0.433C0.508,-0.385 0.53,-0.324 0.53,-0.25C0.53,-0.176 0.508,-0.115 0.464,-0.067C0.417,-0.017 0.357,0.008 0.282,0.008C0.207,0.008 0.147,-0.017 0.1,-0.067C0.056,-0.115 0.034,-0.176 0.034,-0.25C0.034,-0.324 0.056,-0.385 0.1,-0.433C0.147,-0.483 0.207,-0.508 0.282,-0.508ZM0.282,-0.06C0.336,-0.06 0.379,-0.079 0.41,-0.116C0.44,-0.151 0.455,-0.196 0.455,-0.25C0.455,-0.304 0.44,-0.349 0.41,-0.384C0.379,-0.421 0.336,-0.44 0.282,-0.44C0.228,-0.44 0.185,-0.421 0.154,-0.384C0.124,-0.349 0.109,-0.304 0.109,-0.25C0.109,-0.196 0.124,-0.151 0.154,-0.116C0.185,-0.079 0.228,-0.06 0.282,-0.06Z" style="fill:rgb(145,145,145);fill-rule:nonzero;"/>
            </g>
            <g transform="matrix(12,0,0,12,180.853,78.7148)">
                <path d="M0.284,-0.258L0.478,0L0.382,0L0.241,-0.204L0.099,0L0.004,0L0.197,-0.258L0.016,-0.5L0.112,-0.5L0.241,-0.311L0.369,-0.5L0.465,-0.5L0.284,-0.258Z" style="fill:rgb(145,145,145);fill-rule:nonzero;"/>
            </g>
            <g transform="matrix(12,0,0,12,186.637,78.7148)">
                <rect x="0.053" y="-0.102" width="0.097" height="0.102" style="fill:rgb(145,145,145);fill-rule:nonzero;"/>
            </g>
            <g transform="matrix(12,0,0,12,-20.2786,102.715)">
                <path d="M0.652,-0.662L0.652,0L0.565,0L0.156,-0.559L0.156,0L0.081,0L0.081,-0.662L0.168,-0.662L0.577,-0.105L0.577,-0.662L0.652,-0.662Z" style="fill:rgb(255,0,2);fill-rule:nonzero;"/>
            </g>
            <g transform="matrix(12,0,0,12,-11.5906,102.715)">
                <path d="M0.282,-0.508C0.357,-0.508 0.417,-0.483 0.464,-0.433C0.508,-0.385 0.53,-0.324 0.53,-0.25C0.53,-0.176 0.508,-0.115 0.464,-0.067C0.417,-0.017 0.357,0.008 0.282,0.008C0.207,0.008 0.147,-0.017 0.1,-0.067C0.056,-0.115 0.034,-0.176 0.034,-0.25C0.034,-0.324 0.056,-0.385 0.1,-0.433C0.147,-0.483 0.207,-0.508 0.282,-0.508ZM0.282,-0.06C0.336,-0.06 0.379,-0.079 0.41,-0.116C0.44,-0.151 0.455,-0.196 0.455,-0.25C0.455,-0.304 0.44,-0.349 0.41,-0.384C0.379,-0.421 0.336,-0.44 0.282,-0.44C0.228,-0.44 0.185,-0.421 0.154,-0.384C0.124,-0.349 0.109,-0.304 0.109,-0.25C0.109,-0.196 0.124,-0.151 0.154,-0.116C0.185,-0.079 0.228,-0.06 0.282,-0.06Z" style="fill:rgb(255,0,2);fill-rule:nonzero;"/>
            </g>
            <g transform="matrix(12,0,0,12,-4.93055,102.715)">
                <path d="M0.119,0L0.119,-0.434L0.017,-0.434L0.017,-0.5L0.119,-0.5L0.119,-0.679L0.194,-0.679L0.194,-0.5L0.309,-0.5L0.309,-0.434L0.194,-0.434L0.194,0L0.119,0Z" style="fill:rgb(255,0,2);fill-rule:nonzero;"/>
            </g>
            <g transform="matrix(12,0,0,12,-1.13855,102.715)">
                <path d="M0.288,-0.06C0.355,-0.06 0.404,-0.088 0.433,-0.144L0.515,-0.144C0.498,-0.099 0.47,-0.062 0.433,-0.034C0.395,-0.006 0.346,0.008 0.287,0.008C0.212,0.008 0.15,-0.017 0.103,-0.067C0.057,-0.116 0.034,-0.177 0.034,-0.25C0.034,-0.324 0.056,-0.385 0.1,-0.433C0.147,-0.483 0.207,-0.508 0.282,-0.508C0.357,-0.508 0.417,-0.483 0.464,-0.433C0.508,-0.385 0.53,-0.324 0.53,-0.25L0.53,-0.22L0.111,-0.22C0.116,-0.174 0.135,-0.136 0.166,-0.106C0.198,-0.075 0.239,-0.06 0.288,-0.06ZM0.282,-0.44C0.236,-0.44 0.197,-0.426 0.166,-0.397C0.137,-0.37 0.119,-0.334 0.112,-0.29L0.452,-0.29C0.445,-0.334 0.427,-0.37 0.398,-0.397C0.367,-0.426 0.328,-0.44 0.282,-0.44Z" style="fill:rgb(255,0,2);fill-rule:nonzero;"/>
            </g>
            <g transform="matrix(12,0,0,12,5.54545,102.715)">
                <path d="M0.15,-0.102L0.15,0L0.053,0L0.053,-0.102L0.15,-0.102ZM0.15,-0.5L0.15,-0.398L0.053,-0.398L0.053,-0.5L0.15,-0.5Z" style="fill:rgb(255,0,2);fill-rule:nonzero;"/>
            </g>
            <g transform="matrix(12,0,0,12,10.5374,102.715)">
                <path d="M0.198,0.198L0.117,0.198L0.208,-0.007L0.004,-0.5L0.087,-0.5L0.248,-0.09L0.412,-0.5L0.494,-0.5L0.198,0.198Z" style="fill:rgb(255,0,2);fill-rule:nonzero;"/>
            </g>
            <g transform="matrix(12,0,0,12,16.4054,102.715)">
                <path d="M0.282,-0.508C0.357,-0.508 0.417,-0.483 0.464,-0.433C0.508,-0.385 0.53,-0.324 0.53,-0.25C0.53,-0.176 0.508,-0.115 0.464,-0.067C0.417,-0.017 0.357,0.008 0.282,0.008C0.207,0.008 0.147,-0.017 0.1,-0.067C0.056,-0.115 0.034,-0.176 0.034,-0.25C0.034,-0.324 0.056,-0.385 0.1,-0.433C0.147,-0.483 0.207,-0.508 0.282,-0.508ZM0.282,-0.06C0.336,-0.06 0.379,-0.079 0.41,-0.116C0.44,-0.151 0.455,-0.196 0.455,-0.25C0.455,-0.304 0.44,-0.349 0.41,-0.384C0.379,-0.421 0.336,-0.44 0.282,-0.44C0.228,-0.44 0.185,-0.421 0.154,-0.384C0.124,-0.349 0.109,-0.304 0.109,-0.25C0.109,-0.196 0.124,-0.151 0.154,-0.116C0.185,-0.079 0.228,-0.06 0.282,-0.06Z" style="fill:rgb(255,0,2);fill-rule:nonzero;"/>
            </g>
            <g transform="matrix(12,0,0,12,23.1734,102.715)">
                <path d="M0.426,0L0.426,-0.078C0.408,-0.054 0.386,-0.034 0.36,-0.017C0.334,0 0.304,0.008 0.271,0.008C0.238,0.008 0.209,0.003 0.185,-0.006C0.161,-0.015 0.14,-0.029 0.122,-0.048C0.081,-0.089 0.06,-0.142 0.06,-0.209L0.06,-0.5L0.135,-0.5L0.135,-0.211C0.135,-0.165 0.148,-0.128 0.174,-0.101C0.2,-0.074 0.234,-0.06 0.275,-0.06C0.317,-0.06 0.353,-0.074 0.382,-0.102C0.411,-0.131 0.426,-0.167 0.426,-0.212L0.426,-0.5L0.501,-0.5L0.501,0L0.426,0Z" style="fill:rgb(255,0,2);fill-rule:nonzero;"/>
            </g>
            <g transform="matrix(12,0,0,12,29.9654,102.715)">
                <path d="M0.329,-0.508L0.329,-0.433L0.32,-0.433C0.266,-0.433 0.222,-0.411 0.188,-0.368C0.156,-0.327 0.14,-0.277 0.14,-0.22L0.14,0L0.065,0L0.065,-0.5L0.14,-0.5L0.14,-0.377C0.156,-0.429 0.191,-0.467 0.244,-0.492C0.266,-0.503 0.293,-0.508 0.324,-0.508L0.329,-0.508Z" style="fill:rgb(255,0,2);fill-rule:nonzero;"/>
            </g>
            <g transform="matrix(12,0,0,12,36.6614,102.715)">
                <path d="M0.296,-0.06C0.328,-0.06 0.356,-0.069 0.381,-0.087C0.406,-0.105 0.424,-0.128 0.435,-0.157L0.516,-0.157C0.501,-0.108 0.473,-0.068 0.432,-0.038C0.389,-0.007 0.339,0.008 0.28,0.008C0.207,0.008 0.147,-0.017 0.101,-0.067C0.056,-0.116 0.034,-0.177 0.034,-0.25C0.034,-0.323 0.056,-0.384 0.101,-0.433C0.147,-0.483 0.207,-0.508 0.28,-0.508C0.339,-0.508 0.389,-0.493 0.432,-0.462C0.473,-0.432 0.501,-0.392 0.516,-0.343L0.435,-0.343C0.424,-0.372 0.406,-0.395 0.381,-0.413C0.356,-0.431 0.328,-0.44 0.296,-0.44C0.264,-0.44 0.237,-0.435 0.215,-0.425C0.192,-0.415 0.173,-0.401 0.158,-0.384C0.125,-0.348 0.109,-0.303 0.109,-0.25C0.109,-0.197 0.125,-0.152 0.158,-0.116C0.191,-0.079 0.237,-0.06 0.296,-0.06Z" style="fill:rgb(255,0,2);fill-rule:nonzero;"/>
            </g>
            <g transform="matrix(12,0,0,12,43.1894,102.715)">
                <path d="M0.426,0L0.426,-0.078C0.408,-0.054 0.386,-0.034 0.36,-0.017C0.334,0 0.304,0.008 0.271,0.008C0.238,0.008 0.209,0.003 0.185,-0.006C0.161,-0.015 0.14,-0.029 0.122,-0.048C0.081,-0.089 0.06,-0.142 0.06,-0.209L0.06,-0.5L0.135,-0.5L0.135,-0.211C0.135,-0.165 0.148,-0.128 0.174,-0.101C0.2,-0.074 0.234,-0.06 0.275,-0.06C0.317,-0.06 0.353,-0.074 0.382,-0.102C0.411,-0.131 0.426,-0.167 0.426,-0.212L0.426,-0.5L0.501,-0.5L0.501,0L0.426,0Z" style="fill:rgb(255,0,2);fill-rule:nonzero;"/>
            </g>
            <g transform="matrix(12,0,0,12,49.9814,102.715)">
                <path d="M0.329,-0.508L0.329,-0.433L0.32,-0.433C0.266,-0.433 0.222,-0.411 0.188,-0.368C0.156,-0.327 0.14,-0.277 0.14,-0.22L0.14,0L0.065,0L0.065,-0.5L0.14,-0.5L0.14,-0.377C0.156,-0.429 0.191,-0.467 0.244,-0.492C0.266,-0.503 0.293,-0.508 0.324,-0.508L0.329,-0.508Z" style="fill:rgb(255,0,2);fill-rule:nonzero;"/>
            </g>
            <g transform="matrix(12,0,0,12,54.1214,102.715)">
                <path d="M0.329,-0.508L0.329,-0.433L0.32,-0.433C0.266,-0.433 0.222,-0.411 0.188,-0.368C0.156,-0.327 0.14,-0.277 0.14,-0.22L0.14,0L0.065,0L0.065,-0.5L0.14,-0.5L0.14,-0.377C0.156,-0.429 0.191,-0.467 0.244,-0.492C0.266,-0.503 0.293,-0.508 0.324,-0.508L0.329,-0.508Z" style="fill:rgb(255,0,2);fill-rule:nonzero;"/>
            </g>
            <g transform="matrix(12,0,0,12,58.1054,102.715)">
                <path d="M0.288,-0.06C0.355,-0.06 0.404,-0.088 0.433,-0.144L0.515,-0.144C0.498,-0.099 0.47,-0.062 0.433,-0.034C0.395,-0.006 0.346,0.008 0.287,0.008C0.212,0.008 0.15,-0.017 0.103,-0.067C0.057,-0.116 0.034,-0.177 0.034,-0.25C0.034,-0.324 0.056,-0.385 0.1,-0.433C0.147,-0.483 0.207,-0.508 0.282,-0.508C0.357,-0.508 0.417,-0.483 0.464,-0.433C0.508,-0.385 0.53,-0.324 0.53,-0.25L0.53,-0.22L0.111,-0.22C0.116,-0.174 0.135,-0.136 0.166,-0.106C0.198,-0.075 0.239,-0.06 0.288,-0.06ZM0.282,-0.44C0.236,-0.44 0.197,-0.426 0.166,-0.397C0.137,-0.37 0.119,-0.334 0.112,-0.29L0.452,-0.29C0.445,-0.334 0.427,-0.37 0.398,-0.397C0.367,-0.426 0.328,-0.44 0.282,-0.44Z" style="fill:rgb(255,0,2);fill-rule:nonzero;"/>
            </g>
            <g transform="matrix(12,0,0,12,64.7894,102.715)">
                <path d="M0.14,-0.5L0.14,-0.422C0.158,-0.446 0.18,-0.466 0.206,-0.483C0.232,-0.5 0.262,-0.508 0.295,-0.508C0.328,-0.508 0.357,-0.503 0.381,-0.494C0.405,-0.485 0.426,-0.471 0.444,-0.452C0.485,-0.411 0.506,-0.358 0.506,-0.291L0.506,0L0.431,0L0.431,-0.289C0.431,-0.335 0.418,-0.372 0.392,-0.399C0.366,-0.426 0.332,-0.44 0.291,-0.44C0.249,-0.44 0.213,-0.426 0.184,-0.398C0.155,-0.369 0.14,-0.333 0.14,-0.288L0.14,0L0.065,0L0.065,-0.5L0.14,-0.5Z" style="fill:rgb(255,0,2);fill-rule:nonzero;"/>
            </g>
            <g transform="matrix(12,0,0,12,71.4374,102.715)">
                <path d="M0.119,0L0.119,-0.434L0.017,-0.434L0.017,-0.5L0.119,-0.5L0.119,-0.679L0.194,-0.679L0.194,-0.5L0.309,-0.5L0.309,-0.434L0.194,-0.434L0.194,0L0.119,0Z" style="fill:rgb(255,0,2);fill-rule:nonzero;"/>
            </g>
            <g transform="matrix(12,0,0,12,77.9054,102.715)">
                <path d="M0.288,-0.06C0.355,-0.06 0.404,-0.088 0.433,-0.144L0.515,-0.144C0.498,-0.099 0.47,-0.062 0.433,-0.034C0.395,-0.006 0.346,0.008 0.287,0.008C0.212,0.008 0.15,-0.017 0.103,-0.067C0.057,-0.116 0.034,-0.177 0.034,-0.25C0.034,-0.324 0.056,-0.385 0.1,-0.433C0.147,-0.483 0.207,-0.508 0.282,-0.508C0.357,-0.508 0.417,-0.483 0.464,-0.433C0.508,-0.385 0.53,-0.324 0.53,-0.25L0.53,-0.22L0.111,-0.22C0.116,-0.174 0.135,-0.136 0.166,-0.106C0.198,-0.075 0.239,-0.06 0.288,-0.06ZM0.282,-0.44C0.236,-0.44 0.197,-0.426 0.166,-0.397C0.137,-0.37 0.119,-0.334 0.112,-0.29L0.452,-0.29C0.445,-0.334 0.427,-0.37 0.398,-0.397C0.367,-0.426 0.328,-0.44 0.282,-0.44Z" style="fill:rgb(255,0,2);fill-rule:nonzero;"/>
            </g>
            <g transform="matrix(12,0,0,12,84.5894,102.715)">
                <path d="M0.455,-0.08C0.415,-0.021 0.355,0.008 0.276,0.008C0.204,0.008 0.145,-0.017 0.1,-0.067C0.056,-0.116 0.034,-0.177 0.034,-0.25C0.034,-0.323 0.056,-0.384 0.1,-0.433C0.145,-0.483 0.206,-0.508 0.281,-0.508C0.356,-0.508 0.414,-0.478 0.455,-0.419L0.455,-0.7L0.53,-0.7L0.53,0L0.455,0L0.455,-0.08ZM0.286,-0.06C0.34,-0.06 0.383,-0.079 0.414,-0.116C0.444,-0.151 0.459,-0.196 0.459,-0.25C0.459,-0.304 0.444,-0.349 0.414,-0.384C0.383,-0.421 0.34,-0.44 0.286,-0.44C0.233,-0.44 0.189,-0.421 0.156,-0.384C0.125,-0.349 0.109,-0.304 0.109,-0.25C0.109,-0.196 0.125,-0.151 0.156,-0.116C0.189,-0.079 0.233,-0.06 0.286,-0.06Z" style="fill:rgb(255,0,2);fill-rule:nonzero;"/>
            </g>
            <g transform="matrix(12,0,0,12,91.7294,102.715)">
                <path d="M0.065,-0.5L0.14,-0.5L0.14,0L0.065,0L0.065,-0.5ZM0.143,-0.682L0.143,-0.584L0.062,-0.584L0.062,-0.682L0.143,-0.682Z" style="fill:rgb(255,0,2);fill-rule:nonzero;"/>
            </g>
            <g transform="matrix(12,0,0,12,94.1894,102.715)">
                <path d="M0.119,0L0.119,-0.434L0.017,-0.434L0.017,-0.5L0.119,-0.5L0.119,-0.679L0.194,-0.679L0.194,-0.5L0.309,-0.5L0.309,-0.434L0.194,-0.434L0.194,0L0.119,0Z" style="fill:rgb(255,0,2);fill-rule:nonzero;"/>
            </g>
            <g transform="matrix(12,0,0,12,97.9814,102.715)">
                <path d="M0.282,-0.508C0.357,-0.508 0.417,-0.483 0.464,-0.433C0.508,-0.385 0.53,-0.324 0.53,-0.25C0.53,-0.176 0.508,-0.115 0.464,-0.067C0.417,-0.017 0.357,0.008 0.282,0.008C0.207,0.008 0.147,-0.017 0.1,-0.067C0.056,-0.115 0.034,-0.176 0.034,-0.25C0.034,-0.324 0.056,-0.385 0.1,-0.433C0.147,-0.483 0.207,-0.508 0.282,-0.508ZM0.282,-0.06C0.336,-0.06 0.379,-0.079 0.41,-0.116C0.44,-0.151 0.455,-0.196 0.455,-0.25C0.455,-0.304 0.44,-0.349 0.41,-0.384C0.379,-0.421 0.336,-0.44 0.282,-0.44C0.228,-0.44 0.185,-0.421 0.154,-0.384C0.124,-0.349 0.109,-0.304 0.109,-0.25C0.109,-0.196 0.124,-0.151 0.154,-0.116C0.185,-0.079 0.228,-0.06 0.282,-0.06Z" style="fill:rgb(255,0,2);fill-rule:nonzero;"/>
            </g>
            <g transform="matrix(12,0,0,12,104.749,102.715)">
                <path d="M0.329,-0.508L0.329,-0.433L0.32,-0.433C0.266,-0.433 0.222,-0.411 0.188,-0.368C0.156,-0.327 0.14,-0.277 0.14,-0.22L0.14,0L0.065,0L0.065,-0.5L0.14,-0.5L0.14,-0.377C0.156,-0.429 0.191,-0.467 0.244,-0.492C0.266,-0.503 0.293,-0.508 0.324,-0.508L0.329,-0.508Z" style="fill:rgb(255,0,2);fill-rule:nonzero;"/>
            </g>
            <g transform="matrix(12,0,0,12,108.889,102.715)">
                <path d="M0.117,-0.443L0.066,-0.443L0.047,-0.662L0.136,-0.662L0.117,-0.443Z" style="fill:rgb(255,0,2);fill-rule:nonzero;"/>
            </g>
            <g transform="matrix(12,0,0,12,111.085,102.715)">
                <path d="M0.359,-0.366C0.352,-0.418 0.311,-0.444 0.234,-0.444C0.157,-0.444 0.118,-0.42 0.118,-0.372C0.118,-0.352 0.126,-0.337 0.142,-0.327C0.159,-0.316 0.179,-0.308 0.204,-0.301C0.229,-0.294 0.256,-0.288 0.284,-0.282C0.314,-0.277 0.34,-0.269 0.365,-0.259C0.39,-0.248 0.41,-0.234 0.427,-0.216C0.443,-0.198 0.451,-0.173 0.451,-0.142C0.451,-0.093 0.433,-0.056 0.396,-0.031C0.359,-0.005 0.31,0.008 0.247,0.008C0.18,0.008 0.127,-0.009 0.088,-0.042C0.052,-0.071 0.033,-0.11 0.03,-0.157L0.108,-0.157C0.113,-0.111 0.139,-0.08 0.186,-0.064C0.203,-0.059 0.221,-0.056 0.237,-0.056C0.255,-0.056 0.27,-0.057 0.285,-0.059C0.3,-0.061 0.314,-0.065 0.328,-0.07C0.36,-0.083 0.376,-0.104 0.376,-0.135C0.376,-0.156 0.368,-0.172 0.352,-0.183C0.335,-0.194 0.315,-0.203 0.29,-0.21C0.265,-0.217 0.238,-0.223 0.21,-0.229C0.181,-0.234 0.154,-0.242 0.129,-0.252C0.104,-0.262 0.084,-0.276 0.068,-0.293C0.051,-0.31 0.043,-0.334 0.043,-0.365C0.043,-0.41 0.059,-0.446 0.093,-0.47C0.126,-0.496 0.174,-0.508 0.239,-0.508C0.3,-0.508 0.349,-0.493 0.384,-0.464C0.413,-0.439 0.43,-0.407 0.435,-0.366L0.359,-0.366Z" style="fill:rgb(255,0,2);fill-rule:nonzero;"/>
            </g>
            <g transform="matrix(12,0,0,12,119.425,102.715)">
                <path d="M0.296,-0.06C0.328,-0.06 0.356,-0.069 0.381,-0.087C0.406,-0.105 0.424,-0.128 0.435,-0.157L0.516,-0.157C0.501,-0.108 0.473,-0.068 0.432,-0.038C0.389,-0.007 0.339,0.008 0.28,0.008C0.207,0.008 0.147,-0.017 0.101,-0.067C0.056,-0.116 0.034,-0.177 0.034,-0.25C0.034,-0.323 0.056,-0.384 0.101,-0.433C0.147,-0.483 0.207,-0.508 0.28,-0.508C0.339,-0.508 0.389,-0.493 0.432,-0.462C0.473,-0.432 0.501,-0.392 0.516,-0.343L0.435,-0.343C0.424,-0.372 0.406,-0.395 0.381,-0.413C0.356,-0.431 0.328,-0.44 0.296,-0.44C0.264,-0.44 0.237,-0.435 0.215,-0.425C0.192,-0.415 0.173,-0.401 0.158,-0.384C0.125,-0.348 0.109,-0.303 0.109,-0.25C0.109,-0.197 0.125,-0.152 0.158,-0.116C0.191,-0.079 0.237,-0.06 0.296,-0.06Z" style="fill:rgb(255,0,2);fill-rule:nonzero;"/>
            </g>
            <g transform="matrix(12,0,0,12,125.953,102.715)">
                <path d="M0.282,-0.508C0.357,-0.508 0.417,-0.483 0.464,-0.433C0.508,-0.385 0.53,-0.324 0.53,-0.25C0.53,-0.176 0.508,-0.115 0.464,-0.067C0.417,-0.017 0.357,0.008 0.282,0.008C0.207,0.008 0.147,-0.017 0.1,-0.067C0.056,-0.115 0.034,-0.176 0.034,-0.25C0.034,-0.324 0.056,-0.385 0.1,-0.433C0.147,-0.483 0.207,-0.508 0.282,-0.508ZM0.282,-0.06C0.336,-0.06 0.379,-0.079 0.41,-0.116C0.44,-0.151 0.455,-0.196 0.455,-0.25C0.455,-0.304 0.44,-0.349 0.41,-0.384C0.379,-0.421 0.336,-0.44 0.282,-0.44C0.228,-0.44 0.185,-0.421 0.154,-0.384C0.124,-0.349 0.109,-0.304 0.109,-0.25C0.109,-0.196 0.124,-0.151 0.154,-0.116C0.185,-0.079 0.228,-0.06 0.282,-0.06Z" style="fill:rgb(255,0,2);fill-rule:nonzero;"/>
            </g>
            <g transform="matrix(12,0,0,12,132.721,102.715)">
                <path d="M0.14,-0.5L0.14,-0.422C0.158,-0.446 0.18,-0.466 0.206,-0.483C0.232,-0.5 0.262,-0.508 0.295,-0.508C0.328,-0.508 0.357,-0.503 0.381,-0.494C0.405,-0.485 0.426,-0.471 0.444,-0.452C0.485,-0.411 0.506,-0.358 0.506,-0.291L0.506,0L0.431,0L0.431,-0.289C0.431,-0.335 0.418,-0.372 0.392,-0.399C0.366,-0.426 0.332,-0.44 0.291,-0.44C0.249,-0.44 0.213,-0.426 0.184,-0.398C0.155,-0.369 0.14,-0.333 0.14,-0.288L0.14,0L0.065,0L0.065,-0.5L0.14,-0.5Z" style="fill:rgb(255,0,2);fill-rule:nonzero;"/>
            </g>
            <g transform="matrix(12,0,0,12,139.369,102.715)">
                <path d="M0.119,0L0.119,-0.434L0.017,-0.434L0.017,-0.5L0.119,-0.5L0.119,-0.679L0.194,-0.679L0.194,-0.5L0.309,-0.5L0.309,-0.434L0.194,-0.434L0.194,0L0.119,0Z" style="fill:rgb(255,0,2);fill-rule:nonzero;"/>
            </g>
            <g transform="matrix(12,0,0,12,143.161,102.715)">
                <path d="M0.288,-0.06C0.355,-0.06 0.404,-0.088 0.433,-0.144L0.515,-0.144C0.498,-0.099 0.47,-0.062 0.433,-0.034C0.395,-0.006 0.346,0.008 0.287,0.008C0.212,0.008 0.15,-0.017 0.103,-0.067C0.057,-0.116 0.034,-0.177 0.034,-0.25C0.034,-0.324 0.056,-0.385 0.1,-0.433C0.147,-0.483 0.207,-0.508 0.282,-0.508C0.357,-0.508 0.417,-0.483 0.464,-0.433C0.508,-0.385 0.53,-0.324 0.53,-0.25L0.53,-0.22L0.111,-0.22C0.116,-0.174 0.135,-0.136 0.166,-0.106C0.198,-0.075 0.239,-0.06 0.288,-0.06ZM0.282,-0.44C0.236,-0.44 0.197,-0.426 0.166,-0.397C0.137,-0.37 0.119,-0.334 0.112,-0.29L0.452,-0.29C0.445,-0.334 0.427,-0.37 0.398,-0.397C0.367,-0.426 0.328,-0.44 0.282,-0.44Z" style="fill:rgb(255,0,2);fill-rule:nonzero;"/>
            </g>
            <g transform="matrix(12,0,0,12,149.845,102.715)">
                <path d="M0.14,-0.5L0.14,-0.422C0.158,-0.446 0.18,-0.466 0.206,-0.483C0.232,-0.5 0.262,-0.508 0.295,-0.508C0.328,-0.508 0.357,-0.503 0.381,-0.494C0.405,-0.485 0.426,-0.471 0.444,-0.452C0.485,-0.411 0.506,-0.358 0.506,-0.291L0.506,0L0.431,0L0.431,-0.289C0.431,-0.335 0.418,-0.372 0.392,-0.399C0.366,-0.426 0.332,-0.44 0.291,-0.44C0.249,-0.44 0.213,-0.426 0.184,-0.398C0.155,-0.369 0.14,-0.333 0.14,-0.288L0.14,0L0.065,0L0.065,-0.5L0.14,-0.5Z" style="fill:rgb(255,0,2);fill-rule:nonzero;"/>
            </g>
            <g transform="matrix(12,0,0,12,156.493,102.715)">
                <path d="M0.119,0L0.119,-0.434L0.017,-0.434L0.017,-0.5L0.119,-0.5L0.119,-0.679L0.194,-0.679L0.194,-0.5L0.309,-0.5L0.309,-0.434L0.194,-0.434L0.194,0L0.119,0Z" style="fill:rgb(255,0,2);fill-rule:nonzero;"/>
            </g>
            <g transform="matrix(12,0,0,12,162.961,102.715)">
                <path d="M0.377,-0.399L0.252,0L0.166,0L0.009,-0.5L0.089,-0.5L0.209,-0.093L0.336,-0.5L0.418,-0.5L0.545,-0.093L0.665,-0.5L0.745,-0.5L0.588,0L0.502,0L0.377,-0.399Z" style="fill:rgb(255,0,2);fill-rule:nonzero;"/>
            </g>
            <g transform="matrix(12,0,0,12,172.009,102.715)">
                <path d="M0.065,-0.5L0.14,-0.5L0.14,0L0.065,0L0.065,-0.5ZM0.143,-0.682L0.143,-0.584L0.062,-0.584L0.062,-0.682L0.143,-0.682Z" style="fill:rgb(255,0,2);fill-rule:nonzero;"/>
            </g>
            <g transform="matrix(12,0,0,12,174.469,102.715)">
                <rect x="0.065" y="-0.7" width="0.075" height="0.7" style="fill:rgb(255,0,2);fill-rule:nonzero;"/>
            </g>
            <g transform="matrix(12,0,0,12,176.929,102.715)">
                <rect x="0.065" y="-0.7" width="0.075" height="0.7" style="fill:rgb(255,0,2);fill-rule:nonzero;"/>
            </g>
            <g transform="matrix(12,0,0,12,181.945,102.715)">
                <path d="M0.14,-0.419C0.181,-0.478 0.24,-0.508 0.319,-0.508C0.391,-0.508 0.449,-0.483 0.494,-0.433C0.539,-0.384 0.561,-0.323 0.561,-0.25C0.561,-0.177 0.539,-0.116 0.494,-0.067C0.449,-0.017 0.389,0.008 0.314,0.008C0.238,0.008 0.18,-0.021 0.14,-0.08L0.14,0L0.065,0L0.065,-0.7L0.14,-0.7L0.14,-0.419ZM0.309,-0.06C0.362,-0.06 0.406,-0.079 0.439,-0.116C0.47,-0.151 0.486,-0.196 0.486,-0.25C0.486,-0.304 0.47,-0.349 0.439,-0.384C0.406,-0.421 0.362,-0.44 0.309,-0.44C0.255,-0.44 0.212,-0.421 0.181,-0.384C0.151,-0.349 0.136,-0.304 0.136,-0.25C0.136,-0.196 0.151,-0.151 0.181,-0.116C0.212,-0.079 0.255,-0.06 0.309,-0.06Z" style="fill:rgb(255,0,2);fill-rule:nonzero;"/>
            </g>
            <g transform="matrix(12,0,0,12,189.073,102.715)">
                <path d="M0.288,-0.06C0.355,-0.06 0.404,-0.088 0.433,-0.144L0.515,-0.144C0.498,-0.099 0.47,-0.062 0.433,-0.034C0.395,-0.006 0.346,0.008 0.287,0.008C0.212,0.008 0.15,-0.017 0.103,-0.067C0.057,-0.116 0.034,-0.177 0.034,-0.25C0.034,-0.324 0.056,-0.385 0.1,-0.433C0.147,-0.483 0.207,-0.508 0.282,-0.508C0.357,-0.508 0.417,-0.483 0.464,-0.433C0.508,-0.385 0.53,-0.324 0.53,-0.25L0.53,-0.22L0.111,-0.22C0.116,-0.174 0.135,-0.136 0.166,-0.106C0.198,-0.075 0.239,-0.06 0.288,-0.06ZM0.282,-0.44C0.236,-0.44 0.197,-0.426 0.166,-0.397C0.137,-0.37 0.119,-0.334 0.112,-0.29L0.452,-0.29C0.445,-0.334 0.427,-0.37 0.398,-0.397C0.367,-0.426 0.328,-0.44 0.282,-0.44Z" style="fill:rgb(255,0,2);fill-rule:nonzero;"/>
            </g>
            <g transform="matrix(12,0,0,12,198.313,102.715)">
                <path d="M0.455,-0.08C0.415,-0.021 0.355,0.008 0.276,0.008C0.204,0.008 0.145,-0.017 0.1,-0.067C0.056,-0.116 0.034,-0.177 0.034,-0.25C0.034,-0.323 0.056,-0.384 0.1,-0.433C0.145,-0.483 0.206,-0.508 0.281,-0.508C0.356,-0.508 0.414,-0.478 0.455,-0.419L0.455,-0.7L0.53,-0.7L0.53,0L0.455,0L0.455,-0.08ZM0.286,-0.06C0.34,-0.06 0.383,-0.079 0.414,-0.116C0.444,-0.151 0.459,-0.196 0.459,-0.25C0.459,-0.304 0.444,-0.349 0.414,-0.384C0.383,-0.421 0.34,-0.44 0.286,-0.44C0.233,-0.44 0.189,-0.421 0.156,-0.384C0.125,-0.349 0.109,-0.304 0.109,-0.25C0.109,-0.196 0.125,-0.151 0.156,-0.116C0.189,-0.079 0.233,-0.06 0.286,-0.06Z" style="fill:rgb(255,0,2);fill-rule:nonzero;"/>
            </g>
            <g transform="matrix(12,0,0,12,205.453,102.715)">
                <path d="M0.288,-0.06C0.355,-0.06 0.404,-0.088 0.433,-0.144L0.515,-0.144C0.498,-0.099 0.47,-0.062 0.433,-0.034C0.395,-0.006 0.346,0.008 0.287,0.008C0.212,0.008 0.15,-0.017 0.103,-0.067C0.057,-0.116 0.034,-0.177 0.034,-0.25C0.034,-0.324 0.056,-0.385 0.1,-0.433C0.147,-0.483 0.207,-0.508 0.282,-0.508C0.357,-0.508 0.417,-0.483 0.464,-0.433C0.508,-0.385 0.53,-0.324 0.53,-0.25L0.53,-0.22L0.111,-0.22C0.116,-0.174 0.135,-0.136 0.166,-0.106C0.198,-0.075 0.239,-0.06 0.288,-0.06ZM0.282,-0.44C0.236,-0.44 0.197,-0.426 0.166,-0.397C0.137,-0.37 0.119,-0.334 0.112,-0.29L0.452,-0.29C0.445,-0.334 0.427,-0.37 0.398,-0.397C0.367,-0.426 0.328,-0.44 0.282,-0.44Z" style="fill:rgb(255,0,2);fill-rule:nonzero;"/>
            </g>
            <g transform="matrix(12,0,0,12,212.137,102.715)">
                <rect x="0.065" y="-0.7" width="0.075" height="0.7" style="fill:rgb(255,0,2);fill-rule:nonzero;"/>
            </g>
            <g transform="matrix(12,0,0,12,214.597,102.715)">
                <path d="M0.288,-0.06C0.355,-0.06 0.404,-0.088 0.433,-0.144L0.515,-0.144C0.498,-0.099 0.47,-0.062 0.433,-0.034C0.395,-0.006 0.346,0.008 0.287,0.008C0.212,0.008 0.15,-0.017 0.103,-0.067C0.057,-0.116 0.034,-0.177 0.034,-0.25C0.034,-0.324 0.056,-0.385 0.1,-0.433C0.147,-0.483 0.207,-0.508 0.282,-0.508C0.357,-0.508 0.417,-0.483 0.464,-0.433C0.508,-0.385 0.53,-0.324 0.53,-0.25L0.53,-0.22L0.111,-0.22C0.116,-0.174 0.135,-0.136 0.166,-0.106C0.198,-0.075 0.239,-0.06 0.288,-0.06ZM0.282,-0.44C0.236,-0.44 0.197,-0.426 0.166,-0.397C0.137,-0.37 0.119,-0.334 0.112,-0.29L0.452,-0.29C0.445,-0.334 0.427,-0.37 0.398,-0.397C0.367,-0.426 0.328,-0.44 0.282,-0.44Z" style="fill:rgb(255,0,2);fill-rule:nonzero;"/>
            </g>
            <g transform="matrix(12,0,0,12,221.209,102.715)">
                <path d="M0.119,0L0.119,-0.434L0.017,-0.434L0.017,-0.5L0.119,-0.5L0.119,-0.679L0.194,-0.679L0.194,-0.5L0.309,-0.5L0.309,-0.434L0.194,-0.434L0.194,0L0.119,0Z" style="fill:rgb(255,0,2);fill-rule:nonzero;"/>
            </g>
            <g transform="matrix(12,0,0,12,225.001,102.715)">
                <path d="M0.288,-0.06C0.355,-0.06 0.404,-0.088 0.433,-0.144L0.515,-0.144C0.498,-0.099 0.47,-0.062 0.433,-0.034C0.395,-0.006 0.346,0.008 0.287,0.008C0.212,0.008 0.15,-0.017 0.103,-0.067C0.057,-0.116 0.034,-0.177 0.034,-0.25C0.034,-0.324 0.056,-0.385 0.1,-0.433C0.147,-0.483 0.207,-0.508 0.282,-0.508C0.357,-0.508 0.417,-0.483 0.464,-0.433C0.508,-0.385 0.53,-0.324 0.53,-0.25L0.53,-0.22L0.111,-0.22C0.116,-0.174 0.135,-0.136 0.166,-0.106C0.198,-0.075 0.239,-0.06 0.288,-0.06ZM0.282,-0.44C0.236,-0.44 0.197,-0.426 0.166,-0.397C0.137,-0.37 0.119,-0.334 0.112,-0.29L0.452,-0.29C0.445,-0.334 0.427,-0.37 0.398,-0.397C0.367,-0.426 0.328,-0.44 0.282,-0.44Z" style="fill:rgb(255,0,2);fill-rule:nonzero;"/>
            </g>
            <g transform="matrix(12,0,0,12,231.685,102.715)">
                <path d="M0.455,-0.08C0.415,-0.021 0.355,0.008 0.276,0.008C0.204,0.008 0.145,-0.017 0.1,-0.067C0.056,-0.116 0.034,-0.177 0.034,-0.25C0.034,-0.323 0.056,-0.384 0.1,-0.433C0.145,-0.483 0.206,-0.508 0.281,-0.508C0.356,-0.508 0.414,-0.478 0.455,-0.419L0.455,-0.7L0.53,-0.7L0.53,0L0.455,0L0.455,-0.08ZM0.286,-0.06C0.34,-0.06 0.383,-0.079 0.414,-0.116C0.444,-0.151 0.459,-0.196 0.459,-0.25C0.459,-0.304 0.444,-0.349 0.414,-0.384C0.383,-0.421 0.34,-0.44 0.286,-0.44C0.233,-0.44 0.189,-0.421 0.156,-0.384C0.125,-0.349 0.109,-0.304 0.109,-0.25C0.109,-0.196 0.125,-0.151 0.156,-0.116C0.189,-0.079 0.233,-0.06 0.286,-0.06Z" style="fill:rgb(255,0,2);fill-rule:nonzero;"/>
            </g>
            <g transform="matrix(12,0,0,12,238.825,102.715)">
                <path d="M0.159,-0.102L0.159,0L0.062,0L0.062,-0.102L0.159,-0.102ZM0.083,-0.183L0.064,-0.662L0.157,-0.662L0.138,-0.183L0.083,-0.183Z" style="fill:rgb(255,0,2);fill-rule:nonzero;"/>
            </g>
            <g transform="matrix(12,0,0,12,244.033,102.715)">
                <path d="M0.659,0L0.576,0L0.495,-0.192L0.167,-0.192L0.086,0L0.003,0L0.284,-0.662L0.378,-0.662L0.659,0ZM0.466,-0.261L0.331,-0.584L0.196,-0.261L0.466,-0.261Z" style="fill:rgb(255,0,2);fill-rule:nonzero;"/>
            </g>
            <g transform="matrix(12,0,0,12,251.977,102.715)">
                <path d="M0.14,-0.5L0.14,-0.422C0.158,-0.446 0.18,-0.466 0.206,-0.483C0.232,-0.5 0.262,-0.508 0.295,-0.508C0.328,-0.508 0.357,-0.503 0.381,-0.494C0.405,-0.485 0.426,-0.471 0.444,-0.452C0.485,-0.411 0.506,-0.358 0.506,-0.291L0.506,0L0.431,0L0.431,-0.289C0.431,-0.335 0.418,-0.372 0.392,-0.399C0.366,-0.426 0.332,-0.44 0.291,-0.44C0.249,-0.44 0.213,-0.426 0.184,-0.398C0.155,-0.369 0.14,-0.333 0.14,-0.288L0.14,0L0.065,0L0.065,-0.5L0.14,-0.5Z" style="fill:rgb(255,0,2);fill-rule:nonzero;"/>
            </g>
            <g transform="matrix(12,0,0,12,258.613,102.715)">
                <path d="M0.198,0.198L0.117,0.198L0.208,-0.007L0.004,-0.5L0.087,-0.5L0.248,-0.09L0.412,-0.5L0.494,-0.5L0.198,0.198Z" style="fill:rgb(255,0,2);fill-rule:nonzero;"/>
            </g>
            <g transform="matrix(12,0,0,12,267.133,102.715)">
                <path d="M0.426,0L0.426,-0.078C0.408,-0.054 0.386,-0.034 0.36,-0.017C0.334,0 0.304,0.008 0.271,0.008C0.238,0.008 0.209,0.003 0.185,-0.006C0.161,-0.015 0.14,-0.029 0.122,-0.048C0.081,-0.089 0.06,-0.142 0.06,-0.209L0.06,-0.5L0.135,-0.5L0.135,-0.211C0.135,-0.165 0.148,-0.128 0.174,-0.101C0.2,-0.074 0.234,-0.06 0.275,-0.06C0.317,-0.06 0.353,-0.074 0.382,-0.102C0.411,-0.131 0.426,-0.167 0.426,-0.212L0.426,-0.5L0.501,-0.5L0.501,0L0.426,0Z" style="fill:rgb(255,0,2);fill-rule:nonzero;"/>
            </g>
            <g transform="matrix(12,0,0,12,273.925,102.715)">
                <path d="M0.14,-0.5L0.14,-0.422C0.158,-0.446 0.18,-0.466 0.206,-0.483C0.232,-0.5 0.262,-0.508 0.295,-0.508C0.328,-0.508 0.357,-0.503 0.381,-0.494C0.405,-0.485 0.426,-0.471 0.444,-0.452C0.485,-0.411 0.506,-0.358 0.506,-0.291L0.506,0L0.431,0L0.431,-0.289C0.431,-0.335 0.418,-0.372 0.392,-0.399C0.366,-0.426 0.332,-0.44 0.291,-0.44C0.249,-0.44 0.213,-0.426 0.184,-0.398C0.155,-0.369 0.14,-0.333 0.14,-0.288L0.14,0L0.065,0L0.065,-0.5L0.14,-0.5Z" style="fill:rgb(255,0,2);fill-rule:nonzero;"/>
            </g>
            <g transform="matrix(12,0,0,12,280.717,102.715)">
                <path d="M0.359,-0.366C0.352,-0.418 0.311,-0.444 0.234,-0.444C0.157,-0.444 0.118,-0.42 0.118,-0.372C0.118,-0.352 0.126,-0.337 0.142,-0.327C0.159,-0.316 0.179,-0.308 0.204,-0.301C0.229,-0.294 0.256,-0.288 0.284,-0.282C0.314,-0.277 0.34,-0.269 0.365,-0.259C0.39,-0.248 0.41,-0.234 0.427,-0.216C0.443,-0.198 0.451,-0.173 0.451,-0.142C0.451,-0.093 0.433,-0.056 0.396,-0.031C0.359,-0.005 0.31,0.008 0.247,0.008C0.18,0.008 0.127,-0.009 0.088,-0.042C0.052,-0.071 0.033,-0.11 0.03,-0.157L0.108,-0.157C0.113,-0.111 0.139,-0.08 0.186,-0.064C0.203,-0.059 0.221,-0.056 0.237,-0.056C0.255,-0.056 0.27,-0.057 0.285,-0.059C0.3,-0.061 0.314,-0.065 0.328,-0.07C0.36,-0.083 0.376,-0.104 0.376,-0.135C0.376,-0.156 0.368,-0.172 0.352,-0.183C0.335,-0.194 0.315,-0.203 0.29,-0.21C0.265,-0.217 0.238,-0.223 0.21,-0.229C0.181,-0.234 0.154,-0.242 0.129,-0.252C0.104,-0.262 0.084,-0.276 0.068,-0.293C0.051,-0.31 0.043,-0.334 0.043,-0.365C0.043,-0.41 0.059,-0.446 0.093,-0.47C0.126,-0.496 0.174,-0.508 0.239,-0.508C0.3,-0.508 0.349,-0.493 0.384,-0.464C0.413,-0.439 0.43,-0.407 0.435,-0.366L0.359,-0.366Z" style="fill:rgb(255,0,2);fill-rule:nonzero;"/>
            </g>
            <g transform="matrix(12,0,0,12,286.501,102.715)">
                <path d="M0.455,-0.08C0.415,-0.021 0.355,0.008 0.276,0.008C0.204,0.008 0.145,-0.017 0.1,-0.067C0.056,-0.116 0.034,-0.177 0.034,-0.25C0.034,-0.323 0.056,-0.384 0.1,-0.433C0.145,-0.483 0.206,-0.508 0.281,-0.508C0.356,-0.508 0.414,-0.478 0.455,-0.419L0.455,-0.5L0.53,-0.5L0.53,0L0.455,0L0.455,-0.08ZM0.286,-0.06C0.34,-0.06 0.383,-0.079 0.414,-0.116C0.444,-0.151 0.459,-0.196 0.459,-0.25C0.459,-0.304 0.444,-0.349 0.414,-0.384C0.383,-0.421 0.34,-0.44 0.286,-0.44C0.233,-0.44 0.189,-0.421 0.156,-0.384C0.125,-0.349 0.109,-0.304 0.109,-0.25C0.109,-0.196 0.125,-0.151 0.156,-0.116C0.189,-0.079 0.233,-0.06 0.286,-0.06Z" style="fill:rgb(255,0,2);fill-rule:nonzero;"/>
            </g>
            <g transform="matrix(12,0,0,12,293.641,102.715)">
                <path d="M0.484,-0.5L0.289,0L0.201,0L0.005,-0.5L0.087,-0.5L0.245,-0.08L0.402,-0.5L0.484,-0.5Z" style="fill:rgb(255,0,2);fill-rule:nonzero;"/>
            </g>
            <g transform="matrix(12,0,0,12,299.437,102.715)">
                <path d="M0.288,-0.06C0.355,-0.06 0.404,-0.088 0.433,-0.144L0.515,-0.144C0.498,-0.099 0.47,-0.062 0.433,-0.034C0.395,-0.006 0.346,0.008 0.287,0.008C0.212,0.008 0.15,-0.017 0.103,-0.067C0.057,-0.116 0.034,-0.177 0.034,-0.25C0.034,-0.324 0.056,-0.385 0.1,-0.433C0.147,-0.483 0.207,-0.508 0.282,-0.508C0.357,-0.508 0.417,-0.483 0.464,-0.433C0.508,-0.385 0.53,-0.324 0.53,-0.25L0.53,-0.22L0.111,-0.22C0.116,-0.174 0.135,-0.136 0.166,-0.106C0.198,-0.075 0.239,-0.06 0.288,-0.06ZM0.282,-0.44C0.236,-0.44 0.197,-0.426 0.166,-0.397C0.137,-0.37 0.119,-0.334 0.112,-0.29L0.452,-0.29C0.445,-0.334 0.427,-0.37 0.398,-0.397C0.367,-0.426 0.328,-0.44 0.282,-0.44Z" style="fill:rgb(255,0,2);fill-rule:nonzero;"/>
            </g>
            <g transform="matrix(12,0,0,12,306.121,102.715)">
                <path d="M0.455,-0.08C0.415,-0.021 0.355,0.008 0.276,0.008C0.204,0.008 0.145,-0.017 0.1,-0.067C0.056,-0.116 0.034,-0.177 0.034,-0.25C0.034,-0.323 0.056,-0.384 0.1,-0.433C0.145,-0.483 0.206,-0.508 0.281,-0.508C0.356,-0.508 0.414,-0.478 0.455,-0.419L0.455,-0.7L0.53,-0.7L0.53,0L0.455,0L0.455,-0.08ZM0.286,-0.06C0.34,-0.06 0.383,-0.079 0.414,-0.116C0.444,-0.151 0.459,-0.196 0.459,-0.25C0.459,-0.304 0.444,-0.349 0.414,-0.384C0.383,-0.421 0.34,-0.44 0.286,-0.44C0.233,-0.44 0.189,-0.421 0.156,-0.384C0.125,-0.349 0.109,-0.304 0.109,-0.25C0.109,-0.196 0.125,-0.151 0.156,-0.116C0.189,-0.079 0.233,-0.06 0.286,-0.06Z" style="fill:rgb(255,0,2);fill-rule:nonzero;"/>
            </g>
            <g transform="matrix(12,0,0,12,315.817,102.715)">
                <path d="M0.296,-0.06C0.328,-0.06 0.356,-0.069 0.381,-0.087C0.406,-0.105 0.424,-0.128 0.435,-0.157L0.516,-0.157C0.501,-0.108 0.473,-0.068 0.432,-0.038C0.389,-0.007 0.339,0.008 0.28,0.008C0.207,0.008 0.147,-0.017 0.101,-0.067C0.056,-0.116 0.034,-0.177 0.034,-0.25C0.034,-0.323 0.056,-0.384 0.101,-0.433C0.147,-0.483 0.207,-0.508 0.28,-0.508C0.339,-0.508 0.389,-0.493 0.432,-0.462C0.473,-0.432 0.501,-0.392 0.516,-0.343L0.435,-0.343C0.424,-0.372 0.406,-0.395 0.381,-0.413C0.356,-0.431 0.328,-0.44 0.296,-0.44C0.264,-0.44 0.237,-0.435 0.215,-0.425C0.192,-0.415 0.173,-0.401 0.158,-0.384C0.125,-0.348 0.109,-0.303 0.109,-0.25C0.109,-0.197 0.125,-0.152 0.158,-0.116C0.191,-0.079 0.237,-0.06 0.296,-0.06Z" style="fill:rgb(255,0,2);fill-rule:nonzero;"/>
            </g>
            <g transform="matrix(12,0,0,12,322.345,102.715)">
                <path d="M0.14,-0.7L0.14,-0.422C0.158,-0.446 0.18,-0.466 0.206,-0.483C0.232,-0.5 0.262,-0.508 0.295,-0.508C0.328,-0.508 0.357,-0.503 0.381,-0.494C0.405,-0.485 0.426,-0.471 0.444,-0.452C0.485,-0.411 0.506,-0.358 0.506,-0.291L0.506,0L0.431,0L0.431,-0.289C0.431,-0.335 0.418,-0.372 0.392,-0.399C0.366,-0.426 0.332,-0.44 0.291,-0.44C0.249,-0.44 0.213,-0.426 0.184,-0.398C0.155,-0.369 0.14,-0.333 0.14,-0.288L0.14,0L0.065,0L0.065,-0.7L0.14,-0.7Z" style="fill:rgb(255,0,2);fill-rule:nonzero;"/>
            </g>
            <g transform="matrix(12,0,0,12,329.137,102.715)">
                <path d="M0.455,-0.08C0.415,-0.021 0.355,0.008 0.276,0.008C0.204,0.008 0.145,-0.017 0.1,-0.067C0.056,-0.116 0.034,-0.177 0.034,-0.25C0.034,-0.323 0.056,-0.384 0.1,-0.433C0.145,-0.483 0.206,-0.508 0.281,-0.508C0.356,-0.508 0.414,-0.478 0.455,-0.419L0.455,-0.5L0.53,-0.5L0.53,0L0.455,0L0.455,-0.08ZM0.286,-0.06C0.34,-0.06 0.383,-0.079 0.414,-0.116C0.444,-0.151 0.459,-0.196 0.459,-0.25C0.459,-0.304 0.444,-0.349 0.414,-0.384C0.383,-0.421 0.34,-0.44 0.286,-0.44C0.233,-0.44 0.189,-0.421 0.156,-0.384C0.125,-0.349 0.109,-0.304 0.109,-0.25C0.109,-0.196 0.125,-0.151 0.156,-0.116C0.189,-0.079 0.233,-0.06 0.286,-0.06Z" style="fill:rgb(255,0,2);fill-rule:nonzero;"/>
            </g>
            <g transform="matrix(12,0,0,12,336.277,102.715)">
                <path d="M0.14,-0.5L0.14,-0.422C0.158,-0.446 0.18,-0.466 0.206,-0.483C0.232,-0.5 0.262,-0.508 0.295,-0.508C0.328,-0.508 0.357,-0.503 0.381,-0.494C0.405,-0.485 0.426,-0.471 0.444,-0.452C0.485,-0.411 0.506,-0.358 0.506,-0.291L0.506,0L0.431,0L0.431,-0.289C0.431,-0.335 0.418,-0.372 0.392,-0.399C0.366,-0.426 0.332,-0.44 0.291,-0.44C0.249,-0.44 0.213,-0.426 0.184,-0.398C0.155,-0.369 0.14,-0.333 0.14,-0.288L0.14,0L0.065,0L0.065,-0.5L0.14,-0.5Z" style="fill:rgb(255,0,2);fill-rule:nonzero;"/>
            </g>
            <g transform="matrix(12,0,0,12,343.069,102.715)">
                <path d="M0.455,-0.42L0.455,-0.5L0.53,-0.5L0.53,-0.015C0.53,0.057 0.509,0.112 0.469,0.149C0.428,0.187 0.372,0.206 0.303,0.206C0.234,0.206 0.18,0.193 0.141,0.166C0.102,0.139 0.075,0.104 0.061,0.06L0.144,0.06C0.165,0.112 0.214,0.138 0.29,0.138C0.348,0.138 0.39,0.125 0.416,0.098C0.442,0.071 0.455,0.032 0.455,-0.02L0.455,-0.089C0.414,-0.03 0.355,0 0.276,0C0.204,0 0.145,-0.025 0.1,-0.074C0.056,-0.122 0.034,-0.182 0.034,-0.254C0.034,-0.326 0.056,-0.386 0.1,-0.434C0.145,-0.483 0.206,-0.508 0.281,-0.508C0.357,-0.508 0.415,-0.479 0.455,-0.42ZM0.286,-0.068C0.313,-0.068 0.338,-0.073 0.359,-0.083C0.38,-0.092 0.399,-0.105 0.414,-0.122C0.444,-0.157 0.459,-0.201 0.459,-0.254C0.459,-0.307 0.444,-0.351 0.414,-0.386C0.381,-0.422 0.339,-0.44 0.286,-0.44C0.232,-0.44 0.189,-0.422 0.156,-0.386C0.125,-0.351 0.109,-0.307 0.109,-0.254C0.109,-0.201 0.125,-0.157 0.156,-0.122C0.189,-0.086 0.232,-0.068 0.286,-0.068Z" style="fill:rgb(255,0,2);fill-rule:nonzero;"/>
            </g>
            <g transform="matrix(12,0,0,12,350.209,102.715)">
                <path d="M0.288,-0.06C0.355,-0.06 0.404,-0.088 0.433,-0.144L0.515,-0.144C0.498,-0.099 0.47,-0.062 0.433,-0.034C0.395,-0.006 0.346,0.008 0.287,0.008C0.212,0.008 0.15,-0.017 0.103,-0.067C0.057,-0.116 0.034,-0.177 0.034,-0.25C0.034,-0.324 0.056,-0.385 0.1,-0.433C0.147,-0.483 0.207,-0.508 0.282,-0.508C0.357,-0.508 0.417,-0.483 0.464,-0.433C0.508,-0.385 0.53,-0.324 0.53,-0.25L0.53,-0.22L0.111,-0.22C0.116,-0.174 0.135,-0.136 0.166,-0.106C0.198,-0.075 0.239,-0.06 0.288,-0.06ZM0.282,-0.44C0.236,-0.44 0.197,-0.426 0.166,-0.397C0.137,-0.37 0.119,-0.334 0.112,-0.29L0.452,-0.29C0.445,-0.334 0.427,-0.37 0.398,-0.397C0.367,-0.426 0.328,-0.44 0.282,-0.44Z" style="fill:rgb(255,0,2);fill-rule:nonzero;"/>
            </g>
            <g transform="matrix(12,0,0,12,356.893,102.715)">
                <path d="M0.359,-0.366C0.352,-0.418 0.311,-0.444 0.234,-0.444C0.157,-0.444 0.118,-0.42 0.118,-0.372C0.118,-0.352 0.126,-0.337 0.142,-0.327C0.159,-0.316 0.179,-0.308 0.204,-0.301C0.229,-0.294 0.256,-0.288 0.284,-0.282C0.314,-0.277 0.34,-0.269 0.365,-0.259C0.39,-0.248 0.41,-0.234 0.427,-0.216C0.443,-0.198 0.451,-0.173 0.451,-0.142C0.451,-0.093 0.433,-0.056 0.396,-0.031C0.359,-0.005 0.31,0.008 0.247,0.008C0.18,0.008 0.127,-0.009 0.088,-0.042C0.052,-0.071 0.033,-0.11 0.03,-0.157L0.108,-0.157C0.113,-0.111 0.139,-0.08 0.186,-0.064C0.203,-0.059 0.221,-0.056 0.237,-0.056C0.255,-0.056 0.27,-0.057 0.285,-0.059C0.3,-0.061 0.314,-0.065 0.328,-0.07C0.36,-0.083 0.376,-0.104 0.376,-0.135C0.376,-0.156 0.368,-0.172 0.352,-0.183C0.335,-0.194 0.315,-0.203 0.29,-0.21C0.265,-0.217 0.238,-0.223 0.21,-0.229C0.181,-0.234 0.154,-0.242 0.129,-0.252C0.104,-0.262 0.084,-0.276 0.068,-0.293C0.051,-0.31 0.043,-0.334 0.043,-0.365C0.043,-0.41 0.059,-0.446 0.093,-0.47C0.126,-0.496 0.174,-0.508 0.239,-0.508C0.3,-0.508 0.349,-0.493 0.384,-0.464C0.413,-0.439 0.43,-0.407 0.435,-0.366L0.359,-0.366Z" style="fill:rgb(255,0,2);fill-rule:nonzero;"/>
            </g>
            <g transform="matrix(12,0,0,12,365.233,102.715)">
                <path d="M0.377,-0.399L0.252,0L0.166,0L0.009,-0.5L0.089,-0.5L0.209,-0.093L0.336,-0.5L0.418,-0.5L0.545,-0.093L0.665,-0.5L0.745,-0.5L0.588,0L0.502,0L0.377,-0.399Z" style="fill:rgb(255,0,2);fill-rule:nonzero;"/>
            </g>
            <g transform="matrix(12,0,0,12,374.281,102.715)">
                <path d="M0.065,-0.5L0.14,-0.5L0.14,0L0.065,0L0.065,-0.5ZM0.143,-0.682L0.143,-0.584L0.062,-0.584L0.062,-0.682L0.143,-0.682Z" style="fill:rgb(255,0,2);fill-rule:nonzero;"/>
            </g>
            <g transform="matrix(12,0,0,12,376.741,102.715)">
                <rect x="0.065" y="-0.7" width="0.075" height="0.7" style="fill:rgb(255,0,2);fill-rule:nonzero;"/>
            </g>
            <g transform="matrix(12,0,0,12,379.201,102.715)">
                <rect x="0.065" y="-0.7" width="0.075" height="0.7" style="fill:rgb(255,0,2);fill-rule:nonzero;"/>
            </g>
            <g transform="matrix(12,0,0,12,384.217,102.715)">
                <path d="M0.14,-0.419C0.181,-0.478 0.24,-0.508 0.319,-0.508C0.391,-0.508 0.449,-0.483 0.494,-0.433C0.539,-0.384 0.561,-0.323 0.561,-0.25C0.561,-0.177 0.539,-0.116 0.494,-0.067C0.449,-0.017 0.389,0.008 0.314,0.008C0.238,0.008 0.18,-0.021 0.14,-0.08L0.14,0L0.065,0L0.065,-0.7L0.14,-0.7L0.14,-0.419ZM0.309,-0.06C0.362,-0.06 0.406,-0.079 0.439,-0.116C0.47,-0.151 0.486,-0.196 0.486,-0.25C0.486,-0.304 0.47,-0.349 0.439,-0.384C0.406,-0.421 0.362,-0.44 0.309,-0.44C0.255,-0.44 0.212,-0.421 0.181,-0.384C0.151,-0.349 0.136,-0.304 0.136,-0.25C0.136,-0.196 0.151,-0.151 0.181,-0.116C0.212,-0.079 0.255,-0.06 0.309,-0.06Z" style="fill:rgb(255,0,2);fill-rule:nonzero;"/>
            </g>
            <g transform="matrix(12,0,0,12,391.345,102.715)">
                <path d="M0.288,-0.06C0.355,-0.06 0.404,-0.088 0.433,-0.144L0.515,-0.144C0.498,-0.099 0.47,-0.062 0.433,-0.034C0.395,-0.006 0.346,0.008 0.287,0.008C0.212,0.008 0.15,-0.017 0.103,-0.067C0.057,-0.116 0.034,-0.177 0.034,-0.25C0.034,-0.324 0.056,-0.385 0.1,-0.433C0.147,-0.483 0.207,-0.508 0.282,-0.508C0.357,-0.508 0.417,-0.483 0.464,-0.433C0.508,-0.385 0.53,-0.324 0.53,-0.25L0.53,-0.22L0.111,-0.22C0.116,-0.174 0.135,-0.136 0.166,-0.106C0.198,-0.075 0.239,-0.06 0.288,-0.06ZM0.282,-0.44C0.236,-0.44 0.197,-0.426 0.166,-0.397C0.137,-0.37 0.119,-0.334 0.112,-0.29L0.452,-0.29C0.445,-0.334 0.427,-0.37 0.398,-0.397C0.367,-0.426 0.328,-0.44 0.282,-0.44Z" style="fill:rgb(255,0,2);fill-rule:nonzero;"/>
            </g>
            <g transform="matrix(12,0,0,12,-20.2786,114.715)">
                <rect x="0.065" y="-0.7" width="0.075" height="0.7" style="fill:rgb(255,0,2);fill-rule:nonzero;"/>
            </g>
            <g transform="matrix(12,0,0,12,-17.8186,114.715)">
                <path d="M0.282,-0.508C0.357,-0.508 0.417,-0.483 0.464,-0.433C0.508,-0.385 0.53,-0.324 0.53,-0.25C0.53,-0.176 0.508,-0.115 0.464,-0.067C0.417,-0.017 0.357,0.008 0.282,0.008C0.207,0.008 0.147,-0.017 0.1,-0.067C0.056,-0.115 0.034,-0.176 0.034,-0.25C0.034,-0.324 0.056,-0.385 0.1,-0.433C0.147,-0.483 0.207,-0.508 0.282,-0.508ZM0.282,-0.06C0.336,-0.06 0.379,-0.079 0.41,-0.116C0.44,-0.151 0.455,-0.196 0.455,-0.25C0.455,-0.304 0.44,-0.349 0.41,-0.384C0.379,-0.421 0.336,-0.44 0.282,-0.44C0.228,-0.44 0.185,-0.421 0.154,-0.384C0.124,-0.349 0.109,-0.304 0.109,-0.25C0.109,-0.196 0.124,-0.151 0.154,-0.116C0.185,-0.079 0.228,-0.06 0.282,-0.06Z" style="fill:rgb(255,0,2);fill-rule:nonzero;"/>
            </g>
            <g transform="matrix(12,0,0,12,-11.0506,114.715)">
                <path d="M0.359,-0.366C0.352,-0.418 0.311,-0.444 0.234,-0.444C0.157,-0.444 0.118,-0.42 0.118,-0.372C0.118,-0.352 0.126,-0.337 0.142,-0.327C0.159,-0.316 0.179,-0.308 0.204,-0.301C0.229,-0.294 0.256,-0.288 0.284,-0.282C0.314,-0.277 0.34,-0.269 0.365,-0.259C0.39,-0.248 0.41,-0.234 0.427,-0.216C0.443,-0.198 0.451,-0.173 0.451,-0.142C0.451,-0.093 0.433,-0.056 0.396,-0.031C0.359,-0.005 0.31,0.008 0.247,0.008C0.18,0.008 0.127,-0.009 0.088,-0.042C0.052,-0.071 0.033,-0.11 0.03,-0.157L0.108,-0.157C0.113,-0.111 0.139,-0.08 0.186,-0.064C0.203,-0.059 0.221,-0.056 0.237,-0.056C0.255,-0.056 0.27,-0.057 0.285,-0.059C0.3,-0.061 0.314,-0.065 0.328,-0.07C0.36,-0.083 0.376,-0.104 0.376,-0.135C0.376,-0.156 0.368,-0.172 0.352,-0.183C0.335,-0.194 0.315,-0.203 0.29,-0.21C0.265,-0.217 0.238,-0.223 0.21,-0.229C0.181,-0.234 0.154,-0.242 0.129,-0.252C0.104,-0.262 0.084,-0.276 0.068,-0.293C0.051,-0.31 0.043,-0.334 0.043,-0.365C0.043,-0.41 0.059,-0.446 0.093,-0.47C0.126,-0.496 0.174,-0.508 0.239,-0.508C0.3,-0.508 0.349,-0.493 0.384,-0.464C0.413,-0.439 0.43,-0.407 0.435,-0.366L0.359,-0.366Z" style="fill:rgb(255,0,2);fill-rule:nonzero;"/>
            </g>
            <g transform="matrix(12,0,0,12,-5.26655,114.715)">
                <path d="M0.119,0L0.119,-0.434L0.017,-0.434L0.017,-0.5L0.119,-0.5L0.119,-0.679L0.194,-0.679L0.194,-0.5L0.309,-0.5L0.309,-0.434L0.194,-0.434L0.194,0L0.119,0Z" style="fill:rgb(255,0,2);fill-rule:nonzero;"/>
            </g>
            <g transform="matrix(12,0,0,12,-1.57055,114.715)">
                <rect x="0.053" y="-0.102" width="0.097" height="0.102" style="fill:rgb(255,0,2);fill-rule:nonzero;"/>
            </g>
            <g transform="matrix(12,0,0,12,-20.2786,138.715)">
                <path d="M0.551,-0.59L0.32,-0.59L0.32,0L0.245,0L0.245,-0.59L0.014,-0.59L0.014,-0.662L0.551,-0.662L0.551,-0.59Z" style="fill:rgb(145,145,145);fill-rule:nonzero;"/>
            </g>
            <g transform="matrix(12,0,0,12,-14.6746,138.715)">
                <path d="M0.282,-0.508C0.357,-0.508 0.417,-0.483 0.464,-0.433C0.508,-0.385 0.53,-0.324 0.53,-0.25C0.53,-0.176 0.508,-0.115 0.464,-0.067C0.417,-0.017 0.357,0.008 0.282,0.008C0.207,0.008 0.147,-0.017 0.1,-0.067C0.056,-0.115 0.034,-0.176 0.034,-0.25C0.034,-0.324 0.056,-0.385 0.1,-0.433C0.147,-0.483 0.207,-0.508 0.282,-0.508ZM0.282,-0.06C0.336,-0.06 0.379,-0.079 0.41,-0.116C0.44,-0.151 0.455,-0.196 0.455,-0.25C0.455,-0.304 0.44,-0.349 0.41,-0.384C0.379,-0.421 0.336,-0.44 0.282,-0.44C0.228,-0.44 0.185,-0.421 0.154,-0.384C0.124,-0.349 0.109,-0.304 0.109,-0.25C0.109,-0.196 0.124,-0.151 0.154,-0.116C0.185,-0.079 0.228,-0.06 0.282,-0.06Z" style="fill:rgb(145,145,145);fill-rule:nonzero;"/>
            </g>
            <g transform="matrix(12,0,0,12,-5.35055,138.715)">
                <path d="M0.296,-0.06C0.328,-0.06 0.356,-0.069 0.381,-0.087C0.406,-0.105 0.424,-0.128 0.435,-0.157L0.516,-0.157C0.501,-0.108 0.473,-0.068 0.432,-0.038C0.389,-0.007 0.339,0.008 0.28,0.008C0.207,0.008 0.147,-0.017 0.101,-0.067C0.056,-0.116 0.034,-0.177 0.034,-0.25C0.034,-0.323 0.056,-0.384 0.101,-0.433C0.147,-0.483 0.207,-0.508 0.28,-0.508C0.339,-0.508 0.389,-0.493 0.432,-0.462C0.473,-0.432 0.501,-0.392 0.516,-0.343L0.435,-0.343C0.424,-0.372 0.406,-0.395 0.381,-0.413C0.356,-0.431 0.328,-0.44 0.296,-0.44C0.264,-0.44 0.237,-0.435 0.215,-0.425C0.192,-0.415 0.173,-0.401 0.158,-0.384C0.125,-0.348 0.109,-0.303 0.109,-0.25C0.109,-0.197 0.125,-0.152 0.158,-0.116C0.191,-0.079 0.237,-0.06 0.296,-0.06Z" style="fill:rgb(145,145,145);fill-rule:nonzero;"/>
            </g>
            <g transform="matrix(12,0,0,12,1.17745,138.715)">
                <path d="M0.455,-0.08C0.415,-0.021 0.355,0.008 0.276,0.008C0.204,0.008 0.145,-0.017 0.1,-0.067C0.056,-0.116 0.034,-0.177 0.034,-0.25C0.034,-0.323 0.056,-0.384 0.1,-0.433C0.145,-0.483 0.206,-0.508 0.281,-0.508C0.356,-0.508 0.414,-0.478 0.455,-0.419L0.455,-0.5L0.53,-0.5L0.53,0L0.455,0L0.455,-0.08ZM0.286,-0.06C0.34,-0.06 0.383,-0.079 0.414,-0.116C0.444,-0.151 0.459,-0.196 0.459,-0.25C0.459,-0.304 0.444,-0.349 0.414,-0.384C0.383,-0.421 0.34,-0.44 0.286,-0.44C0.233,-0.44 0.189,-0.421 0.156,-0.384C0.125,-0.349 0.109,-0.304 0.109,-0.25C0.109,-0.196 0.125,-0.151 0.156,-0.116C0.189,-0.079 0.233,-0.06 0.286,-0.06Z" style="fill:rgb(145,145,145);fill-rule:nonzero;"/>
            </g>
            <g transform="matrix(12,0,0,12,8.31745,138.715)">
                <path d="M0.14,-0.5L0.14,-0.422C0.158,-0.446 0.18,-0.466 0.206,-0.483C0.232,-0.5 0.262,-0.508 0.295,-0.508C0.328,-0.508 0.357,-0.503 0.381,-0.494C0.405,-0.485 0.426,-0.471 0.444,-0.452C0.485,-0.411 0.506,-0.358 0.506,-0.291L0.506,0L0.431,0L0.431,-0.289C0.431,-0.335 0.418,-0.372 0.392,-0.399C0.366,-0.426 0.332,-0.44 0.291,-0.44C0.249,-0.44 0.213,-0.426 0.184,-0.398C0.155,-0.369 0.14,-0.333 0.14,-0.288L0.14,0L0.065,0L0.065,-0.5L0.14,-0.5Z" style="fill:rgb(145,145,145);fill-rule:nonzero;"/>
            </g>
            <g transform="matrix(12,0,0,12,15.1094,138.715)">
                <path d="M0.296,-0.06C0.328,-0.06 0.356,-0.069 0.381,-0.087C0.406,-0.105 0.424,-0.128 0.435,-0.157L0.516,-0.157C0.501,-0.108 0.473,-0.068 0.432,-0.038C0.389,-0.007 0.339,0.008 0.28,0.008C0.207,0.008 0.147,-0.017 0.101,-0.067C0.056,-0.116 0.034,-0.177 0.034,-0.25C0.034,-0.323 0.056,-0.384 0.101,-0.433C0.147,-0.483 0.207,-0.508 0.28,-0.508C0.339,-0.508 0.389,-0.493 0.432,-0.462C0.473,-0.432 0.501,-0.392 0.516,-0.343L0.435,-0.343C0.424,-0.372 0.406,-0.395 0.381,-0.413C0.356,-0.431 0.328,-0.44 0.296,-0.44C0.264,-0.44 0.237,-0.435 0.215,-0.425C0.192,-0.415 0.173,-0.401 0.158,-0.384C0.125,-0.348 0.109,-0.303 0.109,-0.25C0.109,-0.197 0.125,-0.152 0.158,-0.116C0.191,-0.079 0.237,-0.06 0.296,-0.06Z" style="fill:rgb(145,145,145);fill-rule:nonzero;"/>
            </g>
            <g transform="matrix(12,0,0,12,21.6374,138.715)">
                <path d="M0.288,-0.06C0.355,-0.06 0.404,-0.088 0.433,-0.144L0.515,-0.144C0.498,-0.099 0.47,-0.062 0.433,-0.034C0.395,-0.006 0.346,0.008 0.287,0.008C0.212,0.008 0.15,-0.017 0.103,-0.067C0.057,-0.116 0.034,-0.177 0.034,-0.25C0.034,-0.324 0.056,-0.385 0.1,-0.433C0.147,-0.483 0.207,-0.508 0.282,-0.508C0.357,-0.508 0.417,-0.483 0.464,-0.433C0.508,-0.385 0.53,-0.324 0.53,-0.25L0.53,-0.22L0.111,-0.22C0.116,-0.174 0.135,-0.136 0.166,-0.106C0.198,-0.075 0.239,-0.06 0.288,-0.06ZM0.282,-0.44C0.236,-0.44 0.197,-0.426 0.166,-0.397C0.137,-0.37 0.119,-0.334 0.112,-0.29L0.452,-0.29C0.445,-0.334 0.427,-0.37 0.398,-0.397C0.367,-0.426 0.328,-0.44 0.282,-0.44Z" style="fill:rgb(145,145,145);fill-rule:nonzero;"/>
            </g>
            <g transform="matrix(12,0,0,12,28.3214,138.715)">
                <rect x="0.065" y="-0.7" width="0.075" height="0.7" style="fill:rgb(145,145,145);fill-rule:nonzero;"/>
            </g>
            <g transform="matrix(12,0,0,12,30.7814,138.715)">
                <path d="M0.069,-0.08L0.167,-0.08L0.079,0.133L0.011,0.133L0.069,-0.08Z" style="fill:rgb(145,145,145);fill-rule:nonzero;"/>
            </g>
            <g transform="matrix(12,0,0,12,35.9774,138.715)">
                <rect x="0.065" y="-0.7" width="0.075" height="0.7" style="fill:rgb(145,145,145);fill-rule:nonzero;"/>
            </g>
            <g transform="matrix(12,0,0,12,38.4374,138.715)">
                <path d="M0.288,-0.06C0.355,-0.06 0.404,-0.088 0.433,-0.144L0.515,-0.144C0.498,-0.099 0.47,-0.062 0.433,-0.034C0.395,-0.006 0.346,0.008 0.287,0.008C0.212,0.008 0.15,-0.017 0.103,-0.067C0.057,-0.116 0.034,-0.177 0.034,-0.25C0.034,-0.324 0.056,-0.385 0.1,-0.433C0.147,-0.483 0.207,-0.508 0.282,-0.508C0.357,-0.508 0.417,-0.483 0.464,-0.433C0.508,-0.385 0.53,-0.324 0.53,-0.25L0.53,-0.22L0.111,-0.22C0.116,-0.174 0.135,-0.136 0.166,-0.106C0.198,-0.075 0.239,-0.06 0.288,-0.06ZM0.282,-0.44C0.236,-0.44 0.197,-0.426 0.166,-0.397C0.137,-0.37 0.119,-0.334 0.112,-0.29L0.452,-0.29C0.445,-0.334 0.427,-0.37 0.398,-0.397C0.367,-0.426 0.328,-0.44 0.282,-0.44Z" style="fill:rgb(145,145,145);fill-rule:nonzero;"/>
            </g>
            <g transform="matrix(12,0,0,12,45.1214,138.715)">
                <path d="M0.455,-0.08C0.415,-0.021 0.355,0.008 0.276,0.008C0.204,0.008 0.145,-0.017 0.1,-0.067C0.056,-0.116 0.034,-0.177 0.034,-0.25C0.034,-0.323 0.056,-0.384 0.1,-0.433C0.145,-0.483 0.206,-0.508 0.281,-0.508C0.356,-0.508 0.414,-0.478 0.455,-0.419L0.455,-0.5L0.53,-0.5L0.53,0L0.455,0L0.455,-0.08ZM0.286,-0.06C0.34,-0.06 0.383,-0.079 0.414,-0.116C0.444,-0.151 0.459,-0.196 0.459,-0.25C0.459,-0.304 0.444,-0.349 0.414,-0.384C0.383,-0.421 0.34,-0.44 0.286,-0.44C0.233,-0.44 0.189,-0.421 0.156,-0.384C0.125,-0.349 0.109,-0.304 0.109,-0.25C0.109,-0.196 0.125,-0.151 0.156,-0.116C0.189,-0.079 0.233,-0.06 0.286,-0.06Z" style="fill:rgb(145,145,145);fill-rule:nonzero;"/>
            </g>
            <g transform="matrix(12,0,0,12,52.2614,138.715)">
                <path d="M0.484,-0.5L0.289,0L0.201,0L0.005,-0.5L0.087,-0.5L0.245,-0.08L0.402,-0.5L0.484,-0.5Z" style="fill:rgb(145,145,145);fill-rule:nonzero;"/>
            </g>
            <g transform="matrix(12,0,0,12,58.0574,138.715)">
                <path d="M0.288,-0.06C0.355,-0.06 0.404,-0.088 0.433,-0.144L0.515,-0.144C0.498,-0.099 0.47,-0.062 0.433,-0.034C0.395,-0.006 0.346,0.008 0.287,0.008C0.212,0.008 0.15,-0.017 0.103,-0.067C0.057,-0.116 0.034,-0.177 0.034,-0.25C0.034,-0.324 0.056,-0.385 0.1,-0.433C0.147,-0.483 0.207,-0.508 0.282,-0.508C0.357,-0.508 0.417,-0.483 0.464,-0.433C0.508,-0.385 0.53,-0.324 0.53,-0.25L0.53,-0.22L0.111,-0.22C0.116,-0.174 0.135,-0.136 0.166,-0.106C0.198,-0.075 0.239,-0.06 0.288,-0.06ZM0.282,-0.44C0.236,-0.44 0.197,-0.426 0.166,-0.397C0.137,-0.37 0.119,-0.334 0.112,-0.29L0.452,-0.29C0.445,-0.334 0.427,-0.37 0.398,-0.397C0.367,-0.426 0.328,-0.44 0.282,-0.44Z" style="fill:rgb(145,145,145);fill-rule:nonzero;"/>
            </g>
            <g transform="matrix(12,0,0,12,67.2974,138.715)">
                <path d="M0.119,0L0.119,-0.434L0.017,-0.434L0.017,-0.5L0.119,-0.5L0.119,-0.679L0.194,-0.679L0.194,-0.5L0.309,-0.5L0.309,-0.434L0.194,-0.434L0.194,0L0.119,0Z" style="fill:rgb(145,145,145);fill-rule:nonzero;"/>
            </g>
            <g transform="matrix(12,0,0,12,71.2094,138.715)">
                <path d="M0.14,-0.7L0.14,-0.422C0.158,-0.446 0.18,-0.466 0.206,-0.483C0.232,-0.5 0.262,-0.508 0.295,-0.508C0.328,-0.508 0.357,-0.503 0.381,-0.494C0.405,-0.485 0.426,-0.471 0.444,-0.452C0.485,-0.411 0.506,-0.358 0.506,-0.291L0.506,0L0.431,0L0.431,-0.289C0.431,-0.335 0.418,-0.372 0.392,-0.399C0.366,-0.426 0.332,-0.44 0.291,-0.44C0.249,-0.44 0.213,-0.426 0.184,-0.398C0.155,-0.369 0.14,-0.333 0.14,-0.288L0.14,0L0.065,0L0.065,-0.7L0.14,-0.7Z" style="fill:rgb(145,145,145);fill-rule:nonzero;"/>
            </g>
            <g transform="matrix(12,0,0,12,78.0014,138.715)">
                <path d="M0.288,-0.06C0.355,-0.06 0.404,-0.088 0.433,-0.144L0.515,-0.144C0.498,-0.099 0.47,-0.062 0.433,-0.034C0.395,-0.006 0.346,0.008 0.287,0.008C0.212,0.008 0.15,-0.017 0.103,-0.067C0.057,-0.116 0.034,-0.177 0.034,-0.25C0.034,-0.324 0.056,-0.385 0.1,-0.433C0.147,-0.483 0.207,-0.508 0.282,-0.508C0.357,-0.508 0.417,-0.483 0.464,-0.433C0.508,-0.385 0.53,-0.324 0.53,-0.25L0.53,-0.22L0.111,-0.22C0.116,-0.174 0.135,-0.136 0.166,-0.106C0.198,-0.075 0.239,-0.06 0.288,-0.06ZM0.282,-0.44C0.236,-0.44 0.197,-0.426 0.166,-0.397C0.137,-0.37 0.119,-0.334 0.112,-0.29L0.452,-0.29C0.445,-0.334 0.427,-0.37 0.398,-0.397C0.367,-0.426 0.328,-0.44 0.282,-0.44Z" style="fill:rgb(145,145,145);fill-rule:nonzero;"/>
            </g>
            <g transform="matrix(12,0,0,12,87.2414,138.715)">
                <path d="M0.14,-0.419C0.181,-0.478 0.24,-0.508 0.319,-0.508C0.391,-0.508 0.449,-0.483 0.494,-0.433C0.539,-0.384 0.561,-0.323 0.561,-0.25C0.561,-0.177 0.539,-0.116 0.494,-0.067C0.449,-0.017 0.389,0.008 0.314,0.008C0.238,0.008 0.18,-0.021 0.14,-0.08L0.14,0L0.065,0L0.065,-0.7L0.14,-0.7L0.14,-0.419ZM0.309,-0.06C0.362,-0.06 0.406,-0.079 0.439,-0.116C0.47,-0.151 0.486,-0.196 0.486,-0.25C0.486,-0.304 0.47,-0.349 0.439,-0.384C0.406,-0.421 0.362,-0.44 0.309,-0.44C0.255,-0.44 0.212,-0.421 0.181,-0.384C0.151,-0.349 0.136,-0.304 0.136,-0.25C0.136,-0.196 0.151,-0.151 0.181,-0.116C0.212,-0.079 0.255,-0.06 0.309,-0.06Z" style="fill:rgb(145,145,145);fill-rule:nonzero;"/>
            </g>
            <g transform="matrix(12,0,0,12,94.3694,138.715)">
                <path d="M0.282,-0.508C0.357,-0.508 0.417,-0.483 0.464,-0.433C0.508,-0.385 0.53,-0.324 0.53,-0.25C0.53,-0.176 0.508,-0.115 0.464,-0.067C0.417,-0.017 0.357,0.008 0.282,0.008C0.207,0.008 0.147,-0.017 0.1,-0.067C0.056,-0.115 0.034,-0.176 0.034,-0.25C0.034,-0.324 0.056,-0.385 0.1,-0.433C0.147,-0.483 0.207,-0.508 0.282,-0.508ZM0.282,-0.06C0.336,-0.06 0.379,-0.079 0.41,-0.116C0.44,-0.151 0.455,-0.196 0.455,-0.25C0.455,-0.304 0.44,-0.349 0.41,-0.384C0.379,-0.421 0.336,-0.44 0.282,-0.44C0.228,-0.44 0.185,-0.421 0.154,-0.384C0.124,-0.349 0.109,-0.304 0.109,-0.25C0.109,-0.196 0.124,-0.151 0.154,-0.116C0.185,-0.079 0.228,-0.06 0.282,-0.06Z" style="fill:rgb(145,145,145);fill-rule:nonzero;"/>
            </g>
            <g transform="matrix(12,0,0,12,100.885,138.715)">
                <path d="M0.284,-0.258L0.478,0L0.382,0L0.241,-0.204L0.099,0L0.004,0L0.197,-0.258L0.016,-0.5L0.112,-0.5L0.241,-0.311L0.369,-0.5L0.465,-0.5L0.284,-0.258Z" style="fill:rgb(145,145,145);fill-rule:nonzero;"/>
            </g>
            <g transform="matrix(12,0,0,12,109.225,138.715)">
                <path d="M0.288,-0.06C0.355,-0.06 0.404,-0.088 0.433,-0.144L0.515,-0.144C0.498,-0.099 0.47,-0.062 0.433,-0.034C0.395,-0.006 0.346,0.008 0.287,0.008C0.212,0.008 0.15,-0.017 0.103,-0.067C0.057,-0.116 0.034,-0.177 0.034,-0.25C0.034,-0.324 0.056,-0.385 0.1,-0.433C0.147,-0.483 0.207,-0.508 0.282,-0.508C0.357,-0.508 0.417,-0.483 0.464,-0.433C0.508,-0.385 0.53,-0.324 0.53,-0.25L0.53,-0.22L0.111,-0.22C0.116,-0.174 0.135,-0.136 0.166,-0.106C0.198,-0.075 0.239,-0.06 0.288,-0.06ZM0.282,-0.44C0.236,-0.44 0.197,-0.426 0.166,-0.397C0.137,-0.37 0.119,-0.334 0.112,-0.29L0.452,-0.29C0.445,-0.334 0.427,-0.37 0.398,-0.397C0.367,-0.426 0.328,-0.44 0.282,-0.44Z" style="fill:rgb(145,145,145);fill-rule:nonzero;"/>
            </g>
            <g transform="matrix(12,0,0,12,115.909,138.715)">
                <path d="M0.14,-0.424C0.173,-0.48 0.224,-0.508 0.292,-0.508C0.325,-0.508 0.356,-0.499 0.385,-0.482C0.413,-0.464 0.435,-0.439 0.451,-0.407C0.474,-0.449 0.509,-0.479 0.557,-0.497C0.576,-0.504 0.598,-0.508 0.623,-0.508C0.647,-0.508 0.67,-0.503 0.693,-0.494C0.715,-0.484 0.735,-0.47 0.752,-0.452C0.789,-0.412 0.808,-0.362 0.808,-0.302L0.808,0L0.733,0L0.733,-0.3C0.733,-0.341 0.721,-0.375 0.698,-0.402C0.675,-0.427 0.645,-0.44 0.609,-0.44C0.571,-0.44 0.539,-0.428 0.514,-0.403C0.487,-0.378 0.474,-0.343 0.474,-0.299L0.474,0L0.399,0L0.399,-0.3C0.399,-0.341 0.387,-0.375 0.364,-0.402C0.341,-0.427 0.311,-0.44 0.275,-0.44C0.237,-0.44 0.205,-0.428 0.18,-0.403C0.153,-0.378 0.14,-0.343 0.14,-0.299L0.14,0L0.065,0L0.065,-0.5L0.14,-0.5L0.14,-0.424Z" style="fill:rgb(145,145,145);fill-rule:nonzero;"/>
            </g>
            <g transform="matrix(12,0,0,12,126.325,138.715)">
                <path d="M0.14,-0.42C0.18,-0.479 0.24,-0.508 0.319,-0.508C0.391,-0.508 0.449,-0.483 0.494,-0.433C0.539,-0.384 0.561,-0.323 0.561,-0.25C0.561,-0.177 0.539,-0.116 0.494,-0.067C0.449,-0.017 0.389,0.008 0.314,0.008C0.239,0.008 0.181,-0.022 0.14,-0.081L0.14,0.198L0.065,0.198L0.065,-0.5L0.14,-0.5L0.14,-0.42ZM0.309,-0.44C0.255,-0.44 0.212,-0.421 0.181,-0.384C0.151,-0.349 0.136,-0.304 0.136,-0.25C0.136,-0.196 0.151,-0.151 0.181,-0.116C0.212,-0.079 0.255,-0.06 0.309,-0.06C0.362,-0.06 0.406,-0.079 0.439,-0.116C0.47,-0.151 0.486,-0.196 0.486,-0.25C0.486,-0.304 0.47,-0.349 0.439,-0.384C0.406,-0.421 0.362,-0.44 0.309,-0.44Z" style="fill:rgb(145,145,145);fill-rule:nonzero;"/>
            </g>
            <g transform="matrix(12,0,0,12,133.345,138.715)">
                <path d="M0.119,0L0.119,-0.434L0.017,-0.434L0.017,-0.5L0.119,-0.5L0.119,-0.679L0.194,-0.679L0.194,-0.5L0.309,-0.5L0.309,-0.434L0.194,-0.434L0.194,0L0.119,0Z" style="fill:rgb(145,145,145);fill-rule:nonzero;"/>
            </g>
            <g transform="matrix(12,0,0,12,137.257,138.715)">
                <path d="M0.198,0.198L0.117,0.198L0.208,-0.007L0.004,-0.5L0.087,-0.5L0.248,-0.09L0.412,-0.5L0.494,-0.5L0.198,0.198Z" style="fill:rgb(145,145,145);fill-rule:nonzero;"/>
            </g>
            <g transform="matrix(12,0,0,12,142.825,138.715)">
                <rect x="0.053" y="-0.102" width="0.097" height="0.102" style="fill:rgb(145,145,145);fill-rule:nonzero;"/>
            </g>
        </g>
    </g>
</svg>
