<svg version="1.1" xmlns="http://www.w3.org/2000/svg" xmlns:xlink="http://www.w3.org/1999/xlink" width="26.94697" height="23.543"><g transform="translate(-226.01908,-167.72081)"><g data-paper-data="{&quot;isPaintingLayer&quot;:true}" fill="none" fill-rule="evenodd" stroke="none" stroke-width="1" stroke-linecap="butt" stroke-linejoin="round" stroke-miterlimit="2" stroke-dasharray="" stroke-dashoffset="0" font-family="none" font-weight="none" font-size="none" text-anchor="none" style="mix-blend-mode: normal"><path d="M226.01908,191.26381v-23.543h26.94697v23.543z" data-paper-data="{&quot;origPos&quot;:null}" fill="#363636"/><path d="M245.69676,175.67032h-12.40886c-0.66307,0 -1.20089,-0.53767 -1.20089,-1.20024c0,-0.66257 0.53782,-1.20024 1.20089,-1.20024h12.40886c0.66307,0 1.20089,0.53767 1.20089,1.20024c0,0.66257 -0.53782,1.20024 -1.20089,1.20024z" fill="#b5b5b5"/><path d="M245.69676,180.69278h-12.40886c-0.66307,0 -1.20089,-0.53767 -1.20089,-1.20024c0,-0.66257 0.53782,-1.20024 1.20089,-1.20024h12.40886c0.66307,0 1.20089,0.53767 1.20089,1.20024c0,0.66257 -0.53782,1.20024 -1.20089,1.20024z" fill="#b5b5b5"/><path d="M245.69676,185.71522h-12.40886c-0.66307,0 -1.20089,-0.53767 -1.20089,-1.20024c0,-0.66257 0.53782,-1.20024 1.20089,-1.20024h12.40886c0.66307,0 1.20089,0.53767 1.20089,1.20024c0,0.66257 -0.53782,1.20024 -1.20089,1.20024z" fill="#b5b5b5"/></g></g></svg>