<svg version="1.1" xmlns="http://www.w3.org/2000/svg" xmlns:xlink="http://www.w3.org/1999/xlink" width="178.589" height="30.478"><g transform="translate(-144.70516,-158.761)"><g data-paper-data="{&quot;isPaintingLayer&quot;:true}" fill="none" fill-rule="none" stroke="none" stroke-width="1" stroke-linecap="butt" stroke-linejoin="round" stroke-miterlimit="2" stroke-dasharray="" stroke-dashoffset="0" font-family="none" font-weight="none" font-size="none" text-anchor="none" style="mix-blend-mode: normal"><path d="M144.70516,189.239v-30.478h178.589v30.478z" fill="#363636" fill-rule="evenodd"/><path d="M156.51016,170.208l-3.216,7.944h-1.032l-3.216,-7.944h0.984l2.748,6.924l2.748,-6.924z" fill="#b5b5b5" fill-rule="nonzero"/><path d="M159.45016,177.432c0.804,0 1.392,-0.336 1.74,-1.008h0.984c-0.204,0.54 -0.54,0.984 -0.984,1.32c-0.456,0.336 -1.044,0.504 -1.752,0.504c-0.9,0 -1.644,-0.3 -2.208,-0.9c-0.552,-0.588 -0.828,-1.32 -0.828,-2.196c0,-0.888 0.264,-1.62 0.792,-2.196c0.564,-0.6 1.284,-0.9 2.184,-0.9c0.9,0 1.62,0.3 2.184,0.9c0.528,0.576 0.792,1.308 0.792,2.196v0.36h-5.028c0.06,0.552 0.288,1.008 0.66,1.368c0.384,0.372 0.876,0.552 1.464,0.552zM159.37816,172.872c-0.552,0 -1.02,0.168 -1.392,0.516c-0.348,0.324 -0.564,0.756 -0.648,1.284h4.08c-0.084,-0.528 -0.3,-0.96 -0.648,-1.284c-0.372,-0.348 -0.84,-0.516 -1.392,-0.516z" fill="#b5b5b5" fill-rule="nonzero"/><path d="M166.62616,172.056v0.9h-0.108c-0.648,0 -1.176,0.264 -1.584,0.78c-0.384,0.492 -0.576,1.092 -0.576,1.776v2.64h-0.9v-6h0.9v1.476c0.192,-0.624 0.612,-1.08 1.248,-1.38c0.264,-0.132 0.588,-0.192 0.96,-0.192z" fill="#b5b5b5" fill-rule="nonzero"/><path d="M171.12616,173.76c-0.084,-0.624 -0.576,-0.936 -1.5,-0.936c-0.924,0 -1.392,0.288 -1.392,0.864c0,0.24 0.096,0.42 0.288,0.54c0.204,0.132 0.444,0.228 0.744,0.312c0.3,0.084 0.624,0.156 0.96,0.228c0.36,0.06 0.672,0.156 0.972,0.276c0.3,0.132 0.54,0.3 0.744,0.516c0.192,0.216 0.288,0.516 0.288,0.888c0,0.588 -0.216,1.032 -0.66,1.332c-0.444,0.312 -1.032,0.468 -1.788,0.468c-0.804,0 -1.44,-0.204 -1.908,-0.6c-0.432,-0.348 -0.66,-0.816 -0.696,-1.38h0.936c0.06,0.552 0.372,0.924 0.936,1.116c0.204,0.06 0.42,0.096 0.612,0.096c0.216,0 0.396,-0.012 0.576,-0.036c0.18,-0.024 0.348,-0.072 0.516,-0.132c0.384,-0.156 0.576,-0.408 0.576,-0.78c0,-0.252 -0.096,-0.444 -0.288,-0.576c-0.204,-0.132 -0.444,-0.24 -0.744,-0.324c-0.3,-0.084 -0.624,-0.156 -0.96,-0.228c-0.348,-0.06 -0.672,-0.156 -0.972,-0.276c-0.3,-0.12 -0.54,-0.288 -0.732,-0.492c-0.204,-0.204 -0.3,-0.492 -0.3,-0.864c0,-0.54 0.192,-0.972 0.6,-1.26c0.396,-0.312 0.972,-0.456 1.752,-0.456c0.732,0 1.32,0.18 1.74,0.528c0.348,0.3 0.552,0.684 0.612,1.176z" fill="#b5b5b5" fill-rule="nonzero"/><path d="M173.38216,172.152h0.9v6h-0.9zM174.31816,169.968v1.176h-0.972v-1.176z" fill="#b5b5b5" fill-rule="nonzero"/><path d="M178.44616,172.056c0.9,0 1.62,0.3 2.184,0.9c0.528,0.576 0.792,1.308 0.792,2.196c0,0.888 -0.264,1.62 -0.792,2.196c-0.564,0.6 -1.284,0.9 -2.184,0.9c-0.9,0 -1.62,-0.3 -2.184,-0.9c-0.528,-0.576 -0.792,-1.308 -0.792,-2.196c0,-0.888 0.264,-1.62 0.792,-2.196c0.564,-0.6 1.284,-0.9 2.184,-0.9zM178.44616,177.432c0.648,0 1.164,-0.228 1.536,-0.672c0.36,-0.42 0.54,-0.96 0.54,-1.608c0,-0.648 -0.18,-1.188 -0.54,-1.608c-0.372,-0.444 -0.888,-0.672 -1.536,-0.672c-0.648,0 -1.164,0.228 -1.536,0.672c-0.36,0.42 -0.54,0.96 -0.54,1.608c0,0.648 0.18,1.188 0.54,1.608c0.372,0.444 0.888,0.672 1.536,0.672z" fill="#b5b5b5" fill-rule="nonzero"/><path d="M183.51016,172.152v0.936c0.216,-0.288 0.48,-0.528 0.792,-0.732c0.312,-0.204 0.672,-0.3 1.068,-0.3c0.396,0 0.744,0.06 1.032,0.168c0.288,0.108 0.54,0.276 0.756,0.504c0.492,0.492 0.744,1.128 0.744,1.932v3.492h-0.9v-3.468c0,-0.552 -0.156,-0.996 -0.468,-1.32c-0.312,-0.324 -0.72,-0.492 -1.212,-0.492c-0.504,0 -0.936,0.168 -1.284,0.504c-0.348,0.348 -0.528,0.78 -0.528,1.32v3.456h-0.9v-6z" fill="#b5b5b5" fill-rule="nonzero"/></g></g></svg>