<svg version="1.1" xmlns="http://www.w3.org/2000/svg" xmlns:xlink="http://www.w3.org/1999/xlink" width="178.589" height="30.478"><g transform="translate(-144.70516,-158.7608)"><g data-paper-data="{&quot;isPaintingLayer&quot;:true}" fill="none" fill-rule="none" stroke="none" stroke-width="1" stroke-linecap="butt" stroke-linejoin="round" stroke-miterlimit="2" stroke-dasharray="" stroke-dashoffset="0" font-family="none" font-weight="none" font-size="none" text-anchor="none" style="mix-blend-mode: normal"><path d="M144.70516,189.2388v-30.478h178.589v30.478z" fill="#363636" fill-rule="evenodd"/><g fill="#b5b5b5" fill-rule="nonzero"><g><path d="M156.83416,170.2078v7.944h-1.044l-4.908,-6.708v6.708h-0.9v-7.944h1.044l4.908,6.684v-6.684z"/></g><g><path d="M161.15416,177.4318c0.804,0 1.392,-0.336 1.74,-1.008h0.984c-0.204,0.54 -0.54,0.984 -0.984,1.32c-0.456,0.336 -1.044,0.504 -1.752,0.504c-0.9,0 -1.644,-0.3 -2.208,-0.9c-0.552,-0.588 -0.828,-1.32 -0.828,-2.196c0,-0.888 0.264,-1.62 0.792,-2.196c0.564,-0.6 1.284,-0.9 2.184,-0.9c0.9,0 1.62,0.3 2.184,0.9c0.528,0.576 0.792,1.308 0.792,2.196v0.36h-5.028c0.06,0.552 0.288,1.008 0.66,1.368c0.384,0.372 0.876,0.552 1.464,0.552zM161.08216,172.8718c-0.552,0 -1.02,0.168 -1.392,0.516c-0.348,0.324 -0.564,0.756 -0.648,1.284h4.08c-0.084,-0.528 -0.3,-0.96 -0.648,-1.284c-0.372,-0.348 -0.84,-0.516 -1.392,-0.516z"/></g><g><path d="M168.90616,173.3638l-1.5,4.788h-1.032l-1.884,-6h0.96l1.44,4.884l1.524,-4.884h0.984l1.524,4.884l1.44,-4.884h0.96l-1.884,6h-1.032z"/></g></g></g></g></svg>