<svg version="1.1" xmlns="http://www.w3.org/2000/svg" xmlns:xlink="http://www.w3.org/1999/xlink" width="77.051" height="23.542"><g transform="translate(-201.04706,-168.41088)"><g data-paper-data="{&quot;isPaintingLayer&quot;:true}" fill="none" fill-rule="none" stroke="none" stroke-width="1" stroke-linecap="butt" stroke-linejoin="round" stroke-miterlimit="2" stroke-dasharray="" stroke-dashoffset="0" font-family="none" font-weight="none" font-size="none" text-anchor="none" style="mix-blend-mode: normal"><path d="M278.09806,189.59888c0,1.299 -1.055,2.354 -2.354,2.354h-72.342c-1.3,0 -2.355,-1.055 -2.355,-2.354v-18.834c0,-1.3 1.055,-2.354 2.355,-2.354h72.342c1.299,0 2.354,1.054 2.354,2.354z" data-paper-data="{&quot;origPos&quot;:null}" fill="#121212" fill-rule="evenodd"/><g data-paper-data="{&quot;origPos&quot;:null}" fill="#b5b5b5" fill-rule="nonzero"><g><path d="M225.10876,177.04698v2.664h4.416v0.876h-4.416v2.676h4.944v0.864h-5.844v-7.944h5.844v0.864z"/></g><g><path d="M235.81276,183.16698c-0.48,0.708 -1.2,1.056 -2.148,1.056c-0.864,0 -1.572,-0.3 -2.112,-0.9c-0.528,-0.588 -0.792,-1.32 -0.792,-2.196c0,-0.876 0.264,-1.608 0.792,-2.196c0.54,-0.6 1.272,-0.9 2.172,-0.9c0.9,0 1.596,0.36 2.088,1.068v-3.372h0.9v8.4h-0.9zM233.78476,183.40698c0.648,0 1.164,-0.228 1.536,-0.672c0.36,-0.42 0.54,-0.96 0.54,-1.608c0,-0.648 -0.18,-1.188 -0.54,-1.608c-0.372,-0.444 -0.888,-0.672 -1.536,-0.672c-0.636,0 -1.164,0.228 -1.56,0.672c-0.372,0.42 -0.564,0.96 -0.564,1.608c0,0.648 0.192,1.188 0.564,1.608c0.396,0.444 0.924,0.672 1.56,0.672z"/></g><g><path d="M238.27276,178.12698h0.9v6h-0.9zM239.20876,175.94298v1.176h-0.972v-1.176z"/></g><g><path d="M241.38076,184.12698v-5.208h-1.224v-0.792h1.224v-2.148h0.9v2.148h1.38v0.792h-1.38v5.208z"/></g><g><path d="M247.12876,178.03098c0.9,0 1.62,0.3 2.184,0.9c0.528,0.576 0.792,1.308 0.792,2.196c0,0.888 -0.264,1.62 -0.792,2.196c-0.564,0.6 -1.284,0.9 -2.184,0.9c-0.9,0 -1.62,-0.3 -2.184,-0.9c-0.528,-0.576 -0.792,-1.308 -0.792,-2.196c0,-0.888 0.264,-1.62 0.792,-2.196c0.564,-0.6 1.284,-0.9 2.184,-0.9zM247.12876,183.40698c0.648,0 1.164,-0.228 1.536,-0.672c0.36,-0.42 0.54,-0.96 0.54,-1.608c0,-0.648 -0.18,-1.188 -0.54,-1.608c-0.372,-0.444 -0.888,-0.672 -1.536,-0.672c-0.648,0 -1.164,0.228 -1.536,0.672c-0.36,0.42 -0.54,0.96 -0.54,1.608c0,0.648 0.18,1.188 0.54,1.608c0.372,0.444 0.888,0.672 1.536,0.672z"/></g><g><path d="M254.46076,178.03098v0.9h-0.108c-0.648,0 -1.176,0.264 -1.584,0.78c-0.384,0.492 -0.576,1.092 -0.576,1.776v2.64h-0.9v-6h0.9v1.476c0.192,-0.624 0.612,-1.08 1.248,-1.38c0.264,-0.132 0.588,-0.192 0.96,-0.192z"/></g></g></g></g></svg>