<svg version="1.1" xmlns="http://www.w3.org/2000/svg" xmlns:xlink="http://www.w3.org/1999/xlink" width="77.051" height="23.542"><g transform="translate(-200.96642,-168.34213)"><g data-paper-data="{&quot;isPaintingLayer&quot;:true}" fill="none" fill-rule="none" stroke="none" stroke-width="1" stroke-linecap="butt" stroke-linejoin="round" stroke-miterlimit="2" stroke-dasharray="" stroke-dashoffset="0" font-family="none" font-weight="none" font-size="none" text-anchor="none" style="mix-blend-mode: normal"><path d="M278.01742,189.53013c0,1.299 -1.055,2.354 -2.354,2.354h-72.342c-1.3,0 -2.355,-1.055 -2.355,-2.354v-18.834c0,-1.3 1.055,-2.354 2.355,-2.354h72.342c1.299,0 2.354,1.054 2.354,2.354z" data-paper-data="{&quot;origPos&quot;:null}" fill="#121212" fill-rule="evenodd"/><g data-paper-data="{&quot;origPos&quot;:null}" fill="#b5b5b5" fill-rule="nonzero"><g><path d="M219.20812,183.27823c0.564,0 1.068,-0.144 1.488,-0.432c0.432,-0.288 0.756,-0.672 0.96,-1.164h0.948c-0.264,0.756 -0.696,1.344 -1.308,1.776c-0.648,0.468 -1.416,0.696 -2.292,0.696c-1.164,0 -2.1,-0.396 -2.82,-1.188c-0.684,-0.756 -1.02,-1.716 -1.02,-2.88c0,-1.164 0.336,-2.124 1.02,-2.88c0.72,-0.792 1.656,-1.188 2.82,-1.188c0.876,0 1.644,0.228 2.292,0.696c0.612,0.432 1.044,1.02 1.308,1.776h-0.948c-0.204,-0.492 -0.528,-0.876 -0.96,-1.164c-0.42,-0.288 -0.924,-0.432 -1.488,-0.432c-0.564,0 -1.044,0.084 -1.416,0.24c-0.372,0.168 -0.696,0.396 -0.948,0.684c-0.516,0.588 -0.78,1.344 -0.78,2.268c0,0.924 0.264,1.68 0.78,2.268c0.54,0.612 1.332,0.924 2.364,0.924z"/></g><g><path d="M226.36012,177.96223c0.9,0 1.62,0.3 2.184,0.9c0.528,0.576 0.792,1.308 0.792,2.196c0,0.888 -0.264,1.62 -0.792,2.196c-0.564,0.6 -1.284,0.9 -2.184,0.9c-0.9,0 -1.62,-0.3 -2.184,-0.9c-0.528,-0.576 -0.792,-1.308 -0.792,-2.196c0,-0.888 0.264,-1.62 0.792,-2.196c0.564,-0.6 1.284,-0.9 2.184,-0.9zM226.36012,183.33823c0.648,0 1.164,-0.228 1.536,-0.672c0.36,-0.42 0.54,-0.96 0.54,-1.608c0,-0.648 -0.18,-1.188 -0.54,-1.608c-0.372,-0.444 -0.888,-0.672 -1.536,-0.672c-0.648,0 -1.164,0.228 -1.536,0.672c-0.36,0.42 -0.54,0.96 -0.54,1.608c0,0.648 0.18,1.188 0.54,1.608c0.372,0.444 0.888,0.672 1.536,0.672z"/></g><g><path d="M231.42412,178.97023c0.396,-0.672 1.008,-1.008 1.824,-1.008c0.396,0 0.768,0.108 1.116,0.312c0.336,0.216 0.6,0.516 0.792,0.9c0.276,-0.504 0.696,-0.864 1.272,-1.08c0.228,-0.084 0.492,-0.132 0.792,-0.132c0.288,0 0.564,0.06 0.84,0.168c0.264,0.12 0.504,0.288 0.708,0.504c0.444,0.48 0.672,1.08 0.672,1.8v3.624h-0.9v-3.6c0,-0.492 -0.144,-0.9 -0.42,-1.224c-0.276,-0.3 -0.636,-0.456 -1.068,-0.456c-0.456,0 -0.84,0.144 -1.14,0.444c-0.324,0.3 -0.48,0.72 -0.48,1.248v3.588h-0.9v-3.6c0,-0.492 -0.144,-0.9 -0.42,-1.224c-0.276,-0.3 -0.636,-0.456 -1.068,-0.456c-0.456,0 -0.84,0.144 -1.14,0.444c-0.324,0.3 -0.48,0.72 -0.48,1.248v3.588h-0.9v-6h0.9z"/></g><g><path d="M241.84012,179.01823c0.48,-0.708 1.2,-1.056 2.148,-1.056c0.864,0 1.56,0.3 2.1,0.9c0.54,0.588 0.804,1.32 0.804,2.196c0,0.876 -0.264,1.608 -0.804,2.196c-0.54,0.6 -1.26,0.9 -2.16,0.9c-0.9,0 -1.596,-0.36 -2.088,-1.068v3.348h-0.9v-8.376h0.9zM243.86812,178.77823c-0.648,0 -1.164,0.228 -1.536,0.672c-0.36,0.42 -0.54,0.96 -0.54,1.608c0,0.648 0.18,1.188 0.54,1.608c0.372,0.444 0.888,0.672 1.536,0.672c0.636,0 1.164,-0.228 1.56,-0.672c0.372,-0.42 0.564,-0.96 0.564,-1.608c0,-0.648 -0.192,-1.188 -0.564,-1.608c-0.396,-0.444 -0.924,-0.672 -1.56,-0.672z"/></g><g><path d="M248.06812,178.05823h0.9v6h-0.9zM249.00412,175.87423v1.176h-0.972v-1.176z"/></g><g><path d="M250.52812,184.05823v-8.4h0.9v8.4z"/></g><g><path d="M255.66412,183.33823c0.804,0 1.392,-0.336 1.74,-1.008h0.984c-0.204,0.54 -0.54,0.984 -0.984,1.32c-0.456,0.336 -1.044,0.504 -1.752,0.504c-0.9,0 -1.644,-0.3 -2.208,-0.9c-0.552,-0.588 -0.828,-1.32 -0.828,-2.196c0,-0.888 0.264,-1.62 0.792,-2.196c0.564,-0.6 1.284,-0.9 2.184,-0.9c0.9,0 1.62,0.3 2.184,0.9c0.528,0.576 0.792,1.308 0.792,2.196v0.36h-5.028c0.06,0.552 0.288,1.008 0.66,1.368c0.384,0.372 0.876,0.552 1.464,0.552zM255.59212,178.77823c-0.552,0 -1.02,0.168 -1.392,0.516c-0.348,0.324 -0.564,0.756 -0.648,1.284h4.08c-0.084,-0.528 -0.3,-0.96 -0.648,-1.284c-0.372,-0.348 -0.84,-0.516 -1.392,-0.516z"/></g><g><path d="M262.84012,177.96223v0.9h-0.108c-0.648,0 -1.176,0.264 -1.584,0.78c-0.384,0.492 -0.576,1.092 -0.576,1.776v2.64h-0.9v-6h0.9v1.476c0.192,-0.624 0.612,-1.08 1.248,-1.38c0.264,-0.132 0.588,-0.192 0.96,-0.192z"/></g></g></g></g></svg>