<svg version="1.1" xmlns="http://www.w3.org/2000/svg" xmlns:xlink="http://www.w3.org/1999/xlink" width="23.54254" height="23.542"><g transform="translate(-229.00794,-168.15166)"><g data-paper-data="{&quot;isPaintingLayer&quot;:true}" fill="none" fill-rule="evenodd" stroke="none" stroke-width="1" stroke-linecap="butt" stroke-linejoin="round" stroke-miterlimit="2" stroke-dasharray="" stroke-dashoffset="0" font-family="none" font-weight="none" font-size="none" text-anchor="none" style="mix-blend-mode: normal"><path d="M252.55048,189.33966c0,1.299 -1.05474,2.354 -2.35422,2.354h-18.8341c-1.29918,0 -2.35422,-1.055 -2.35422,-2.354v-18.834c0,-1.3 1.05505,-2.354 2.35422,-2.354h18.8341c1.29948,0 2.35422,1.054 2.35422,2.354z" data-paper-data="{&quot;origPos&quot;:null}" fill="#121212"/><path d="M243.61882,179.43757c0.184,0.092 0.3,0.28 0.3,0.485c0,0.205 -0.116,0.393 -0.3,0.485c-1.526,0.763 -4.461,2.23 -5.864,2.932c-0.168,0.084 -0.367,0.075 -0.527,-0.024c-0.16,-0.099 -0.257,-0.273 -0.257,-0.461c0,-1.466 0,-4.398 0,-5.864c0,-0.188 0.097,-0.362 0.257,-0.461c0.16,-0.099 0.359,-0.108 0.527,-0.024c1.403,0.702 4.338,2.169 5.864,2.932z" data-paper-data="{&quot;origPos&quot;:null}" fill="#84dd28"/></g></g></svg>