<svg version="1.1" xmlns="http://www.w3.org/2000/svg" xmlns:xlink="http://www.w3.org/1999/xlink" width="77.051" height="23.542"><g transform="translate(-201.26642,-168.42309)"><g data-paper-data="{&quot;isPaintingLayer&quot;:true}" fill="none" fill-rule="none" stroke="none" stroke-width="1" stroke-linecap="butt" stroke-linejoin="round" stroke-miterlimit="2" stroke-dasharray="" stroke-dashoffset="0" font-family="none" font-weight="none" font-size="none" text-anchor="none" style="mix-blend-mode: normal"><path d="M278.31742,189.61109c0,1.299 -1.055,2.354 -2.354,2.354h-72.342c-1.3,0 -2.355,-1.055 -2.355,-2.354v-18.834c0,-1.3 1.055,-2.354 2.355,-2.354h72.342c1.299,0 2.354,1.054 2.354,2.354z" data-paper-data="{&quot;origPos&quot;:null}" fill="#121212" fill-rule="evenodd"/><g data-paper-data="{&quot;origPos&quot;:null}" fill="#b5b5b5" fill-rule="nonzero"><g><path d="M228.68812,183.35919c0.564,0 1.068,-0.144 1.488,-0.432c0.432,-0.288 0.756,-0.672 0.96,-1.164h0.948c-0.264,0.756 -0.696,1.344 -1.308,1.776c-0.648,0.468 -1.416,0.696 -2.292,0.696c-1.164,0 -2.1,-0.396 -2.82,-1.188c-0.684,-0.756 -1.02,-1.716 -1.02,-2.88c0,-1.164 0.336,-2.124 1.02,-2.88c0.72,-0.792 1.656,-1.188 2.82,-1.188c0.876,0 1.644,0.228 2.292,0.696c0.612,0.432 1.044,1.02 1.308,1.776h-0.948c-0.204,-0.492 -0.528,-0.876 -0.96,-1.164c-0.42,-0.288 -0.924,-0.432 -1.488,-0.432c-0.564,0 -1.044,0.084 -1.416,0.24c-0.372,0.168 -0.696,0.396 -0.948,0.684c-0.516,0.588 -0.78,1.344 -0.78,2.268c0,0.924 0.264,1.68 0.78,2.268c0.54,0.612 1.332,0.924 2.364,0.924z"/></g><g><path d="M233.23612,184.13919v-8.4h0.9v8.4z"/></g><g><path d="M238.30012,178.04319c0.9,0 1.62,0.3 2.184,0.9c0.528,0.576 0.792,1.308 0.792,2.196c0,0.888 -0.264,1.62 -0.792,2.196c-0.564,0.6 -1.284,0.9 -2.184,0.9c-0.9,0 -1.62,-0.3 -2.184,-0.9c-0.528,-0.576 -0.792,-1.308 -0.792,-2.196c0,-0.888 0.264,-1.62 0.792,-2.196c0.564,-0.6 1.284,-0.9 2.184,-0.9zM238.30012,183.41919c0.648,0 1.164,-0.228 1.536,-0.672c0.36,-0.42 0.54,-0.96 0.54,-1.608c0,-0.648 -0.18,-1.188 -0.54,-1.608c-0.372,-0.444 -0.888,-0.672 -1.536,-0.672c-0.648,0 -1.164,0.228 -1.536,0.672c-0.36,0.42 -0.54,0.96 -0.54,1.608c0,0.648 0.18,1.188 0.54,1.608c0.372,0.444 0.888,0.672 1.536,0.672z"/></g><g><path d="M245.99212,179.74719c-0.084,-0.624 -0.576,-0.936 -1.5,-0.936c-0.924,0 -1.392,0.288 -1.392,0.864c0,0.24 0.096,0.42 0.288,0.54c0.204,0.132 0.444,0.228 0.744,0.312c0.3,0.084 0.624,0.156 0.96,0.228c0.36,0.06 0.672,0.156 0.972,0.276c0.3,0.132 0.54,0.3 0.744,0.516c0.192,0.216 0.288,0.516 0.288,0.888c0,0.588 -0.216,1.032 -0.66,1.332c-0.444,0.312 -1.032,0.468 -1.788,0.468c-0.804,0 -1.44,-0.204 -1.908,-0.6c-0.432,-0.348 -0.66,-0.816 -0.696,-1.38h0.936c0.06,0.552 0.372,0.924 0.936,1.116c0.204,0.06 0.42,0.096 0.612,0.096c0.216,0 0.396,-0.012 0.576,-0.036c0.18,-0.024 0.348,-0.072 0.516,-0.132c0.384,-0.156 0.576,-0.408 0.576,-0.78c0,-0.252 -0.096,-0.444 -0.288,-0.576c-0.204,-0.132 -0.444,-0.24 -0.744,-0.324c-0.3,-0.084 -0.624,-0.156 -0.96,-0.228c-0.348,-0.06 -0.672,-0.156 -0.972,-0.276c-0.3,-0.12 -0.54,-0.288 -0.732,-0.492c-0.204,-0.204 -0.3,-0.492 -0.3,-0.864c0,-0.54 0.192,-0.972 0.6,-1.26c0.396,-0.312 0.972,-0.456 1.752,-0.456c0.732,0 1.32,0.18 1.74,0.528c0.348,0.3 0.552,0.684 0.612,1.176z"/></g><g><path d="M250.92412,183.41919c0.804,0 1.392,-0.336 1.74,-1.008h0.984c-0.204,0.54 -0.54,0.984 -0.984,1.32c-0.456,0.336 -1.044,0.504 -1.752,0.504c-0.9,0 -1.644,-0.3 -2.208,-0.9c-0.552,-0.588 -0.828,-1.32 -0.828,-2.196c0,-0.888 0.264,-1.62 0.792,-2.196c0.564,-0.6 1.284,-0.9 2.184,-0.9c0.9,0 1.62,0.3 2.184,0.9c0.528,0.576 0.792,1.308 0.792,2.196v0.36h-5.028c0.06,0.552 0.288,1.008 0.66,1.368c0.384,0.372 0.876,0.552 1.464,0.552zM250.85212,178.85919c-0.552,0 -1.02,0.168 -1.392,0.516c-0.348,0.324 -0.564,0.756 -0.648,1.284h4.08c-0.084,-0.528 -0.3,-0.96 -0.648,-1.284c-0.372,-0.348 -0.84,-0.516 -1.392,-0.516z"/></g></g></g></g></svg>